<svg width="72" height="72" viewBox="0 0 72 72" fill="none" xmlns="http://www.w3.org/2000/svg">
<g clip-path="url(#clip0_391_2027)">
<path d="M36.0478 46.8005C30.2576 46.8005 25.5469 42.1837 25.5469 36.5079C25.5469 30.8321 30.2576 26.2148 36.0478 26.2148C36.8689 26.2148 37.8693 26.4169 37.8031 27.4679C37.7398 28.4712 36.8306 28.5374 36.0478 28.5374C31.538 28.5374 27.8695 32.113 27.8695 36.5079C27.8695 40.9028 31.538 44.4779 36.0478 44.4779C40.5577 44.4779 44.2262 40.9023 44.2262 36.5079C44.2262 35.2236 43.9231 33.9984 43.3251 32.8656C43.0255 32.2988 43.2426 31.5963 43.8093 31.2966C44.376 30.997 45.0798 31.213 45.3788 31.7815C46.1441 33.2308 46.5488 34.8653 46.5488 36.5079C46.5488 42.1837 41.8386 46.8005 36.0478 46.8005Z" fill="url(#paint0_linear_391_2027)"/>
<path d="M41.5868 30.3181C41.3516 30.3181 41.1141 30.2467 40.9086 30.0986C40.6014 29.8774 40.2751 29.6748 39.9389 29.4965C39.3716 29.1963 39.1556 28.4943 39.4552 27.927C39.7548 27.3609 40.4574 27.1432 41.0247 27.4439C41.4556 27.6721 41.8736 27.9311 42.2673 28.215C43.1592 28.8578 42.6877 30.3181 41.5868 30.3181Z" fill="url(#paint1_linear_391_2027)"/>
<path d="M67.6318 18.19L67.5906 13.1483C67.5854 12.5101 67.0663 11.9968 66.4293 11.9968C66.4258 11.9968 66.4229 11.9968 66.4195 11.9968C65.7784 12.0021 65.2622 12.5264 65.2675 13.1674L65.2796 14.6974C58.3078 6.39535 47.1403 1 36.4286 1C25.3522 1 15.0991 5.96103 8.30268 14.6097C7.90668 15.1137 7.99436 15.8436 8.49836 16.2396C9.00294 16.6362 9.73281 16.5485 10.1294 16.0439C16.4828 7.95903 26.0687 3.32258 36.4286 3.32258C46.8418 3.32258 57.7167 8.7609 64.1909 17.0392H61.0038C60.3627 17.0392 59.8425 17.5588 59.8425 18.2005C59.8425 18.8415 60.3627 19.3617 61.0038 19.3617H66.4705C66.8451 19.3612 67.6318 18.9437 67.6318 18.19Z" fill="url(#paint2_linear_391_2027)"/>
<path d="M69.6427 23.5092C69.4104 22.9123 68.7369 22.6162 68.1394 22.849C67.5419 23.0813 67.2458 23.7548 67.4786 24.3529C68.9389 28.0998 69.6792 32.0546 69.6792 36.1075C69.6792 48.8416 60.8087 61.0694 48.1692 66.3341L49.0344 65.0102C49.3851 64.4737 49.2341 63.7537 48.6976 63.4036C48.1605 63.0535 47.4411 63.2033 47.0898 63.7404L44.3201 67.9779C43.9346 68.5661 44.1825 69.3924 44.8236 69.6757L49.4896 71.7335C50.8594 72.3345 51.7971 70.2134 50.4268 69.6084L48.4416 68.7333C54.5354 66.3138 60.0597 62.2899 64.2171 57.1924C69.3105 50.947 72.0018 43.6564 72.0018 36.1075C72.0018 31.7648 71.2081 27.5267 69.6427 23.5092C71.2081 27.5267 69.4098 22.9117 69.6427 23.5092Z" fill="url(#paint3_linear_391_2027)"/>
<path d="M37.8046 68.8615C37.3476 68.8795 36.8883 68.8888 36.4267 68.8888C18.0923 68.8888 3.17607 54.1822 3.17607 36.1044C3.17607 32.9062 4.52026 28.9061 5.80116 25.5297L6.82542 27.7959C7.44381 29.1628 9.55794 28.2018 8.94245 26.8402L6.77723 22.0499C6.51071 21.4611 5.77736 21.2004 5.19903 21.4895L0.641551 23.772C0.0678733 24.0589 -0.163804 24.7568 0.123035 25.3299C0.410454 25.9036 1.10955 26.1364 1.68149 25.8479L3.55174 24.9113C2.22671 28.4242 0.854067 32.5886 0.854067 36.1038C0.854067 55.4613 16.8119 71.2102 36.4273 71.2102C36.9197 71.2102 37.4097 71.1997 37.8969 71.1806C38.5379 71.1556 39.0367 70.615 39.0112 69.9746C38.9856 69.3341 38.4439 68.8371 37.8046 68.8615C38.4439 68.8371 37.3482 68.8795 37.8046 68.8615Z" fill="url(#paint4_linear_391_2027)"/>
<path d="M37.8597 59.6363C36.7199 59.6363 33.3412 59.6497 32.8151 59.4255C31.9093 59.04 31.1707 58.0569 31.1707 57.0489V54.7357C29.4207 54.2769 27.7304 53.5627 26.1998 52.6355L24.574 54.2578C23.5532 55.2658 21.813 55.0968 20.8335 54.1596C20.355 53.7015 18.4923 51.7993 18.0615 51.2988C17.1429 50.231 17.1632 48.5762 18.1672 47.574L19.8034 45.9418C18.8465 44.3113 18.1486 42.5978 17.7514 40.9029H15.4614C14.0336 40.9029 12.8537 39.73 12.7753 38.315C12.7387 37.6537 12.7561 34.9856 12.7753 34.3213C12.8148 32.9527 13.9221 31.6382 15.3661 31.6382H17.6876C18.1468 29.8933 18.8616 28.2077 19.7907 26.6824L18.1677 25.0629C17.1522 24.0474 17.3281 22.2997 18.2659 21.3242C18.7252 20.8469 20.632 18.9877 21.1331 18.5586C22.2015 17.644 23.8563 17.6644 24.8597 18.6642L26.4983 20.2993C28.1328 19.3436 29.8515 18.6468 31.5516 18.2497V15.8731C31.5516 14.4447 32.7292 13.2689 34.1425 13.1899C34.805 13.1533 37.4794 13.169 38.1454 13.1899C39.593 13.2352 40.7363 14.418 40.7363 15.8731V18.1864C42.4863 18.6451 44.1766 19.3587 45.7072 20.2866L47.333 18.6642C48.3514 17.6528 50.0963 17.8275 51.0735 18.7629C51.5519 19.2211 53.4146 21.1227 53.8449 21.6232C54.7635 22.6916 54.7432 24.3458 53.7386 25.348L52.103 26.9802C53.0599 28.6101 53.7572 30.323 54.155 32.0185H56.445C57.8397 32.0185 59.0748 33.0503 59.2176 34.4624C59.2867 35.1458 59.2466 37.9173 59.2269 38.6007C59.1874 39.9698 58.0813 41.2833 56.6361 41.2833H54.3146C53.8554 43.0281 53.1406 44.7131 52.2116 46.2397L53.8345 47.8585C54.8506 48.8746 54.6741 50.6224 53.7363 51.5978C53.277 52.0751 51.3708 53.9338 50.8691 54.3629C49.8001 55.278 48.1465 55.2588 47.1425 54.2578L45.5039 52.6227C43.8694 53.5778 42.1513 54.2752 40.4506 54.6724V56.9537C40.4506 58.3229 39.2742 59.6363 37.8597 59.6363ZM33.4927 56.9566C33.5177 57.0745 33.6007 57.3137 33.8562 57.3137H37.768C37.887 57.2887 38.128 57.2063 38.128 56.9531V53.7201C38.128 53.1528 38.5385 52.668 39.0988 52.5751C41.0783 52.2458 43.1337 51.4167 45.0435 50.1782C45.5028 49.8803 46.1084 49.9442 46.4957 50.3303L48.7828 52.6128C48.9669 52.7969 49.2137 52.6883 49.3298 52.6198L52.1123 49.936C52.2783 49.7706 52.1779 49.5354 52.1094 49.4181L49.9064 47.2198C49.5098 46.8244 49.4523 46.2025 49.7688 45.7409C50.9434 44.0274 51.8277 41.9475 52.2586 39.8833C52.3712 39.3451 52.8456 38.9595 53.3955 38.9595H56.5449C56.6634 38.9351 56.9043 38.8533 56.9043 38.6001V34.6947C56.8567 34.4595 56.7023 34.3405 56.445 34.3405H53.2045C52.6366 34.3405 52.1523 33.9306 52.0588 33.3702C51.7296 31.3966 50.8987 29.3469 49.6579 27.4418C49.3577 26.9814 49.4215 26.374 49.8106 25.9856L52.0977 23.7031C52.2783 23.5231 52.1721 23.2798 52.1047 23.1642L49.4152 20.3882C49.2468 20.2209 49.0075 20.322 48.8885 20.3905L46.685 22.5894C46.2901 22.9837 45.6706 23.0411 45.2101 22.7258C43.4932 21.5547 41.4075 20.6715 39.3375 20.2413C38.7986 20.1298 38.4125 19.6542 38.4125 19.1044V15.8713C38.4125 15.6478 38.2563 15.5108 38.1443 15.5108H34.2325C34.1134 15.5357 33.8725 15.6182 33.8725 15.8713V19.1996C33.8725 19.7669 33.4619 20.2517 32.9016 20.3446C30.9228 20.6738 28.8673 21.5024 26.957 22.7409C26.4977 23.04 25.8927 22.9755 25.5054 22.5888L23.2182 20.3069C23.0347 20.1234 22.7874 20.2314 22.6712 20.2993L19.8888 22.9831C19.7227 23.1486 19.8232 23.3837 19.8917 23.501L22.0947 25.6999C22.4912 26.0959 22.5487 26.7172 22.2323 27.1788C21.0582 28.8911 20.1739 30.9716 19.7425 33.0358C19.6298 33.574 19.1554 33.9596 18.6056 33.9596H15.4579C15.3388 33.9851 15.0979 34.067 15.0979 34.3207V38.2227C15.1228 38.3406 15.2059 38.5798 15.4614 38.5798H18.7019C19.2698 38.5798 19.7541 38.9903 19.8476 39.55C20.1768 41.5231 21.0071 43.5733 22.2485 45.479C22.5487 45.9395 22.4848 46.5468 22.0958 46.9353L19.8087 49.2172C19.6281 49.3978 19.7343 49.6411 19.8017 49.7566L22.4912 52.5327C22.6596 52.7005 22.8988 52.5995 23.0179 52.5298L25.2214 50.3309C25.6157 49.9366 26.2358 49.8791 26.6968 50.1944C28.4132 51.3662 30.4983 52.2493 32.5689 52.6796C33.1077 52.7911 33.4939 53.2666 33.4939 53.8165V56.9566H33.4927Z" fill="url(#paint5_linear_391_2027)"/>
</g>
<defs>
<linearGradient id="paint0_linear_391_2027" x1="36.0478" y1="26.2148" x2="36.0478" y2="46.8005" gradientUnits="userSpaceOnUse">
<stop stop-color="white"/>
<stop offset="1" stop-color="#04B2BE"/>
</linearGradient>
<linearGradient id="paint1_linear_391_2027" x1="41.0275" y1="27.3086" x2="41.0275" y2="30.3181" gradientUnits="userSpaceOnUse">
<stop stop-color="white"/>
<stop offset="1" stop-color="#04B2BE"/>
</linearGradient>
<linearGradient id="paint2_linear_391_2027" x1="37.8433" y1="1" x2="37.8433" y2="19.3617" gradientUnits="userSpaceOnUse">
<stop stop-color="white"/>
<stop offset="1" stop-color="#04B2BE"/>
</linearGradient>
<linearGradient id="paint3_linear_391_2027" x1="58.0693" y1="22.7695" x2="58.0693" y2="71.8396" gradientUnits="userSpaceOnUse">
<stop stop-color="white"/>
<stop offset="1" stop-color="#04B2BE"/>
</linearGradient>
<linearGradient id="paint4_linear_391_2027" x1="19.5061" y1="21.3711" x2="19.5061" y2="71.2102" gradientUnits="userSpaceOnUse">
<stop stop-color="white"/>
<stop offset="1" stop-color="#04B2BE"/>
</linearGradient>
<linearGradient id="paint5_linear_391_2027" x1="36.0052" y1="13.168" x2="36.0052" y2="59.6365" gradientUnits="userSpaceOnUse">
<stop stop-color="white"/>
<stop offset="1" stop-color="#04B2BE"/>
</linearGradient>
<clipPath id="clip0_391_2027">
<rect width="72" height="72" fill="white"/>
</clipPath>
</defs>
</svg>
