<svg width="72" height="72" viewBox="0 0 72 72" fill="none" xmlns="http://www.w3.org/2000/svg">
<path d="M66.7371 53.0315C68.6755 53.0315 70.3371 51.37 70.3371 49.4315C70.3371 47.493 68.6755 45.8315 66.7371 45.8315H58.9832C59.9525 44.7238 60.6448 43.3392 60.6448 41.6777V11.2161C60.6448 7.75458 57.8755 4.98535 54.414 4.98535H42.5063H29.6294H17.7217C14.2602 4.98535 11.4909 7.75458 11.4909 11.2161V41.6777C11.4909 43.2007 12.0448 44.7238 13.1525 45.8315H5.26016C3.32169 45.8315 1.66016 47.493 1.66016 49.4315C1.66016 51.37 3.32169 53.0315 5.26016 53.0315H7.19862V59.6777H5.26016C3.32169 59.6777 1.66016 61.3392 1.66016 63.2777C1.66016 65.2161 3.32169 66.8777 5.26016 66.8777H66.5986C68.5371 66.8777 70.1986 65.2161 70.1986 63.2777C70.1986 61.3392 68.5371 59.6777 66.5986 59.6777H64.7986V53.0315H66.7371ZM41.3986 7.20074V16.2007L39.8755 14.9546C39.4602 14.6777 38.9063 14.6777 38.6294 14.9546L36.2755 16.893L33.6448 14.8161C33.5063 14.6777 33.2294 14.5392 32.9525 14.5392C32.6755 14.5392 32.5371 14.6777 32.2602 14.8161L30.5986 16.0623V7.20074H41.3986ZM13.5678 41.6777V11.2161C13.5678 9.00074 15.3678 7.06227 17.7217 7.06227H28.5217V18.1392C28.5217 18.5546 28.7986 18.97 29.0755 19.1084C29.4909 19.2469 29.9063 19.2469 30.1832 18.97L32.814 16.893L35.4448 18.97C35.8602 19.2469 36.414 19.2469 36.6909 18.97L39.0448 17.0315L41.6755 19.1084C41.814 19.2469 42.0909 19.3854 42.3678 19.3854C42.5063 19.3854 42.6448 19.3853 42.7832 19.2469C43.1986 19.1084 43.3371 18.693 43.3371 18.2777V7.20074H54.1371C56.3525 7.20074 58.2909 9.00074 58.2909 11.3546V41.8161C58.2909 44.0315 56.4909 45.97 54.1371 45.97H17.7217C15.3678 45.8315 13.5678 44.0315 13.5678 41.6777ZM3.87554 49.4315C3.87554 48.6007 4.56785 47.9084 5.39862 47.9084H17.7217H54.2755H66.5986C67.4294 47.9084 68.1217 48.6007 68.1217 49.4315C68.1217 50.2623 67.4294 50.9546 66.5986 50.9546H5.26016C4.42939 50.9546 3.87554 50.2623 3.87554 49.4315ZM44.3063 59.6777V53.0315H48.3217V59.6777H44.3063ZM29.7678 59.6777V53.0315H42.0909V59.6777H29.7678ZM23.6755 59.6777V53.0315H27.6909V59.6777H23.6755ZM9.27554 53.0315H21.5986V59.6777H9.27554V53.0315ZM68.2601 63.2777C68.2601 64.1084 67.5678 64.8007 66.7371 64.8007H5.26016C4.42939 64.8007 3.73708 64.1084 3.73708 63.2777C3.73708 62.4469 4.42939 61.7546 5.26016 61.7546H63.6909H66.5986C67.5678 61.7546 68.2601 62.4469 68.2601 63.2777ZM62.7217 59.6777H50.3986V53.0315H62.7217V59.6777Z" fill="url(#paint0_linear_391_2064)"/>
<path d="M19.2191 40.8446C19.496 41.1215 19.7729 41.26 20.0498 41.26L20.1883 41.26L20.3267 41.26C20.6037 41.26 21.0191 41.1215 21.1575 40.8446L23.9267 38.0754C24.3421 37.66 24.3421 36.9677 23.9267 36.5523C23.5114 36.1369 22.8191 36.1369 22.4037 36.5523L21.1575 37.7985L21.1575 28.1062C21.1575 27.5523 20.7421 26.9985 20.0498 26.9985C19.3575 26.9985 18.9421 27.4139 18.9421 28.1062L18.9421 37.7985L17.696 36.5523C17.5575 36.4139 17.2806 36.2754 17.0037 36.2754C16.7267 36.2754 16.4498 36.4139 16.3114 36.5523C15.896 36.9677 15.896 37.66 16.3114 38.0754L19.2191 40.8446Z" fill="url(#paint1_linear_391_2064)"/>
<path d="M28.4964 40.8446C28.7733 41.1215 29.0502 41.26 29.3272 41.26L29.4656 41.26L29.6041 41.26C29.881 41.26 30.2964 41.1215 30.4349 40.8446L33.2041 38.0754C33.6195 37.66 33.6195 36.9677 33.2041 36.5523C32.7887 36.1369 32.0964 36.1369 31.681 36.5523L30.4349 37.7985L30.4349 28.1062C30.4349 27.5523 30.0195 26.9985 29.3272 26.9985C28.6349 26.9985 28.2195 27.4139 28.2195 28.1062L28.2195 37.7985L26.9733 36.5523C26.8349 36.4139 26.5579 36.2754 26.281 36.2754C26.0041 36.2754 25.7272 36.4139 25.5887 36.5523C25.1733 36.9677 25.1733 37.66 25.5887 38.0754L28.4964 40.8446Z" fill="url(#paint2_linear_391_2064)"/>
<defs>
<linearGradient id="paint0_linear_391_2064" x1="35.9986" y1="4.98535" x2="35.9986" y2="66.8777" gradientUnits="userSpaceOnUse">
<stop stop-color="white"/>
<stop offset="1" stop-color="#04B2BE"/>
</linearGradient>
<linearGradient id="paint1_linear_391_2064" x1="20.1191" y1="41.26" x2="20.1191" y2="26.9985" gradientUnits="userSpaceOnUse">
<stop stop-color="white"/>
<stop offset="1" stop-color="#04B2BE"/>
</linearGradient>
<linearGradient id="paint2_linear_391_2064" x1="29.3964" y1="41.26" x2="29.3964" y2="26.9985" gradientUnits="userSpaceOnUse">
<stop stop-color="white"/>
<stop offset="1" stop-color="#04B2BE"/>
</linearGradient>
</defs>
</svg>
