<svg width="72" height="72" viewBox="0 0 72 72" fill="none" xmlns="http://www.w3.org/2000/svg">
<path d="M13.2012 1.625H59.1006C65.3315 1.625 70.376 6.66943 70.376 12.9004V58.8057C70.6727 65.3334 65.6302 70.375 59.4004 70.375H13.2012C6.97021 70.375 1.92578 65.3306 1.92578 59.0996V12.9004C1.92578 6.86418 6.65943 1.94145 12.6201 1.63965L13.2012 1.625ZM13.2012 4.375C8.32924 4.375 4.67578 8.33428 4.67578 12.9004V58.7998C4.67578 63.6717 8.63506 67.3252 13.2012 67.3252H59.1006C63.9725 67.3252 67.626 63.3659 67.626 58.7998V12.9004C67.626 8.02846 63.6667 4.375 59.1006 4.375H13.2012Z" fill="url(#paint0_linear_391_2109)" stroke="#198CB3" stroke-width="0.25"/>
<path d="M52.7627 31.9568C53.0944 31.8574 53.5065 31.9198 53.9326 32.2039L53.9404 32.2097L53.9492 32.2136L57.8486 34.0144L57.8623 34.0183C58.6833 34.2921 58.9765 35.1171 58.9766 35.9998C58.9766 36.4229 58.8348 36.8512 58.6191 37.2107C58.4038 37.5696 58.1215 37.8488 57.8496 37.9861L38.3555 46.9822C37.4785 47.2736 36.8967 47.2751 36.3018 47.2751C35.9996 47.2751 35.7089 47.275 35.457 47.239C35.2034 47.2028 35.0108 47.1326 34.8896 47.0115L34.874 46.9958L34.8535 46.9861L15.3535 37.9861H15.3545L15.3408 37.9812C14.5198 37.7074 14.2266 36.8824 14.2266 35.9998C14.2266 35.5768 14.3684 35.1492 14.584 34.7898C14.8004 34.4291 15.0843 34.1481 15.3574 34.0115L19.2539 32.2136L19.2578 32.2117C19.5204 32.0805 19.8604 32.0758 20.2158 32.1824C20.5636 32.2867 20.9139 32.4949 21.1973 32.7732C21.3204 33.0333 21.3239 33.3659 21.2197 33.7136C21.1155 34.061 20.9067 34.4109 20.6289 34.6941L17.9512 35.8855L17.7002 35.9968L17.9482 36.113L35.9482 44.5134L35.9736 44.5251H36.6289L36.6533 44.5134L54.9541 36.114L55.1904 36.0046L54.957 35.8884L52.5576 34.6882L52.5498 34.6843L52.541 34.6814C52.1239 34.5423 51.858 34.2697 51.7588 33.9392C51.6593 33.6074 51.7217 33.1955 52.0059 32.7693L52.0146 32.7556L52.0205 32.74C52.1596 32.3228 52.4322 32.0559 52.7627 31.9568Z" fill="url(#paint1_linear_391_2109)" stroke="#198CB3" stroke-width="0.25"/>
<path d="M53.0625 43.6567C53.3943 43.5573 53.8063 43.6197 54.2324 43.9038L54.2402 43.9097L54.249 43.9136L58.1484 45.7144L58.1621 45.7183C58.9833 45.992 59.2763 46.817 59.2764 47.6997C59.2764 48.1229 59.1346 48.5512 58.9189 48.9106C58.7036 49.2696 58.4214 49.5488 58.1494 49.686L38.6699 58.6753C38.0743 58.6779 37.6247 58.7531 37.252 58.8276C36.8679 58.9044 36.5856 58.9751 36.3018 58.9751C35.9996 58.9751 35.7089 58.9749 35.457 58.939C35.2034 58.9027 35.0108 58.8326 34.8896 58.7114L34.874 58.6958L34.8535 58.686L15.3535 49.686H15.3545L15.3408 49.6812C14.5198 49.4073 14.2266 48.5824 14.2266 47.6997C14.2266 47.2767 14.3684 46.8491 14.584 46.4897C14.8004 46.129 15.0843 45.848 15.3574 45.7114L19.2539 43.9136L19.2578 43.9116C19.5204 43.7805 19.8604 43.7757 20.2158 43.8823C20.5636 43.9867 20.9139 44.1949 21.1973 44.4731C21.3204 44.7333 21.3239 45.0658 21.2197 45.4136C21.1155 45.7609 20.9067 46.1108 20.6289 46.394L17.9512 47.5854L17.6982 47.6978L17.9492 47.814L36.249 56.2134L36.2744 56.2251H36.9287L36.9541 56.2134L55.2539 47.814L55.4902 47.7046L52.8496 46.3843L52.8408 46.3813C52.4238 46.2423 52.1578 45.9696 52.0586 45.6392C51.9591 45.3074 52.0215 44.8955 52.3057 44.4692L52.3145 44.4556L52.3203 44.4399C52.4594 44.0227 52.732 43.7559 53.0625 43.6567Z" fill="url(#paint2_linear_391_2109)" stroke="#198CB3" stroke-width="0.25"/>
<path d="M34.5566 13.6116C35.7277 13.0261 36.8782 13.035 37.7314 13.6038L37.7393 13.6096L37.748 13.6135L57.248 22.6135V22.6145L57.2617 22.6184C58.0826 22.8922 58.3759 23.7173 58.376 24.5999C58.376 25.023 58.2342 25.4513 58.0186 25.8108C57.803 26.17 57.5202 26.449 57.248 26.5862L37.7627 35.5784C37.6797 35.5834 37.5863 35.6017 37.4922 35.6262C37.3828 35.6548 37.2563 35.6933 37.1289 35.7297C36.8676 35.8044 36.582 35.8752 36.3008 35.8752C35.9983 35.8752 35.7842 35.8746 35.5713 35.8391C35.3615 35.8041 35.1483 35.7341 34.8564 35.5881L34.8535 35.5862L15.3604 26.5891C14.4702 25.9942 13.9258 25.4281 13.9258 24.5999C13.9258 24.1767 14.0675 23.7483 14.2832 23.3889C14.4996 23.0284 14.7836 22.7481 15.0566 22.6116L34.5527 13.6135L34.5566 13.6116ZM35.6475 16.0872L17.9473 24.4875L17.7051 24.6018L17.9482 24.7141L36.249 33.1135L36.2734 33.1252H36.6289L36.6533 33.1135L54.6533 24.7131L54.8965 24.5999L54.6533 24.4866L36.6533 16.0872L36.6289 16.0754H35.6729L35.6475 16.0872Z" fill="url(#paint3_linear_391_2109)" stroke="#198CB3" stroke-width="0.25"/>
<defs>
<linearGradient id="paint0_linear_391_2109" x1="36.1571" y1="1.5" x2="36.1571" y2="70.5" gradientUnits="userSpaceOnUse">
<stop stop-color="white"/>
<stop offset="1" stop-color="#04B2BE"/>
</linearGradient>
<linearGradient id="paint1_linear_391_2109" x1="36.6016" y1="31.7878" x2="36.6016" y2="47.4" gradientUnits="userSpaceOnUse">
<stop stop-color="white"/>
<stop offset="1" stop-color="#04B2BE"/>
</linearGradient>
<linearGradient id="paint2_linear_391_2109" x1="36.7516" y1="43.4878" x2="36.7516" y2="59.1" gradientUnits="userSpaceOnUse">
<stop stop-color="white"/>
<stop offset="1" stop-color="#04B2BE"/>
</linearGradient>
<linearGradient id="paint3_linear_391_2109" x1="36.1508" y1="13.05" x2="36.1508" y2="36" gradientUnits="userSpaceOnUse">
<stop stop-color="white"/>
<stop offset="1" stop-color="#04B2BE"/>
</linearGradient>
</defs>
</svg>
