<svg width="128" height="128" viewBox="0 0 128 128" fill="none" xmlns="http://www.w3.org/2000/svg">
<path d="M66 5.99994V2C66 1.46957 65.7893 0.960859 65.4142 0.585786C65.0391 0.210714 64.5304 0 64 0C63.4696 0 62.9609 0.210714 62.5858 0.585786C62.2107 0.960859 62 1.46957 62 2V5.99994C62 6.53037 62.2107 7.03908 62.5858 7.41415C62.9609 7.78923 63.4696 7.99994 64 7.99994C64.5304 7.99994 65.0391 7.78923 65.4142 7.41415C65.7893 7.03908 66 6.53037 66 5.99994Z" fill="url(#paint0_linear_68_717)"/>
<path d="M108 43.9991H104C103.737 43.9976 103.475 44.0483 103.231 44.1481C102.988 44.248 102.766 44.3951 102.579 44.5809C102.392 44.7668 102.244 44.9878 102.143 45.2311C102.041 45.4745 101.989 45.7355 101.989 45.999C101.989 46.2626 102.041 46.5236 102.143 46.7669C102.244 47.0103 102.392 47.2312 102.579 47.4171C102.766 47.603 102.988 47.75 103.231 47.8499C103.475 47.9498 103.737 48.0004 104 47.999H108C108.264 48.0004 108.525 47.9498 108.769 47.8499C109.013 47.75 109.235 47.603 109.422 47.4171C109.608 47.2312 109.757 47.0103 109.858 46.7669C109.959 46.5236 110.011 46.2626 110.011 45.999C110.011 45.7355 109.959 45.4745 109.858 45.2311C109.757 44.9878 109.608 44.7668 109.422 44.5809C109.235 44.3951 109.013 44.248 108.769 44.1481C108.525 44.0483 108.264 43.9976 108 43.9991Z" fill="url(#paint1_linear_68_717)"/>
<path d="M18 45.9991C18 46.5295 18.2108 47.0381 18.5858 47.4132C18.9609 47.7883 19.4696 47.999 20 47.999H24C24.2636 48.0004 24.5248 47.9498 24.7687 47.8499C25.0126 47.75 25.2344 47.603 25.4213 47.4171C25.6082 47.2312 25.7565 47.0103 25.8577 46.7669C25.9589 46.5236 26.011 46.2626 26.011 45.999C26.011 45.7355 25.9589 45.4745 25.8577 45.2311C25.7565 44.9878 25.6082 44.7668 25.4213 44.5809C25.2344 44.3951 25.0126 44.248 24.7687 44.1481C24.5248 44.0483 24.2636 43.9976 24 43.9991H20C19.4696 43.9991 18.9609 44.2098 18.5858 44.5849C18.2107 44.9599 18 45.4686 18 45.9991Z" fill="url(#paint2_linear_68_717)"/>
<path d="M93.6982 19.1295L96.5264 16.301C96.7121 16.1153 96.8594 15.8948 96.9598 15.6522C97.0603 15.4096 97.1121 15.1496 97.1121 14.8869C97.1121 14.6243 97.0603 14.3643 96.9598 14.1217C96.8593 13.8791 96.712 13.6586 96.5263 13.4729C96.3406 13.2872 96.1202 13.1399 95.8776 13.0394C95.6349 12.9389 95.3749 12.8872 95.1123 12.8872C94.8497 12.8872 94.5896 12.9389 94.347 13.0394C94.1044 13.1399 93.8839 13.2872 93.6982 13.4729L90.8701 16.3015C90.6844 16.4872 90.5371 16.7076 90.4366 16.9503C90.3361 17.1929 90.2844 17.4529 90.2844 17.7155C90.2844 17.9782 90.3362 18.2382 90.4367 18.4808C90.5372 18.7234 90.6845 18.9439 90.8702 19.1296C91.0559 19.3153 91.2763 19.4626 91.5189 19.5631C91.7616 19.6636 92.0216 19.7153 92.2842 19.7153C92.5468 19.7153 92.8069 19.6636 93.0495 19.5631C93.2921 19.4626 93.5125 19.3152 93.6982 19.1295Z" fill="url(#paint3_linear_68_717)"/>
<path d="M34.3018 72.8684L31.4736 75.6965C31.0986 76.0715 30.8879 76.5802 30.8879 77.1106C30.8879 77.6409 31.0986 78.1496 31.4737 78.5246C31.8487 78.8996 32.3574 79.1103 32.8877 79.1103C33.4181 79.1103 33.9267 78.8996 34.3018 78.5246L37.1299 75.6965C37.5049 75.3215 37.7156 74.8128 37.7156 74.2825C37.7156 73.7521 37.5049 73.2434 37.1299 72.8684C36.7548 72.4934 36.2462 72.2827 35.7158 72.2827C35.1854 72.2827 34.6768 72.4934 34.3018 72.8684Z" fill="url(#paint4_linear_68_717)"/>
<path d="M95.1123 79.1105C95.5078 79.1104 95.8944 78.9931 96.2232 78.7733C96.5521 78.5536 96.8084 78.2412 96.9597 77.8758C97.1111 77.5104 97.1507 77.1084 97.0735 76.7205C96.9964 76.3325 96.806 75.9762 96.5264 75.6965L93.6982 72.8684C93.3232 72.4934 92.8146 72.2827 92.2842 72.2827C91.7538 72.2827 91.2452 72.4934 90.8702 72.8684C90.4951 73.2434 90.2844 73.7521 90.2844 74.2825C90.2844 74.8128 90.4951 75.3215 90.8701 75.6965L93.6983 78.5246C93.8837 78.7106 94.1041 78.8581 94.3468 78.9587C94.5895 79.0592 94.8496 79.1108 95.1123 79.1105Z" fill="url(#paint5_linear_68_717)"/>
<path d="M35.7158 19.7154C36.1114 19.7155 36.4981 19.5983 36.827 19.3785C37.1559 19.1588 37.4123 18.8464 37.5637 18.481C37.715 18.1155 37.7546 17.7134 37.6774 17.3254C37.6002 16.9375 37.4096 16.5811 37.1299 16.3015L34.3018 13.4729C33.9267 13.0979 33.4181 12.8872 32.8877 12.8872C32.3574 12.8872 31.8487 13.0979 31.4737 13.4729C31.0986 13.8479 30.8879 14.3566 30.8879 14.8869C30.8879 15.4173 31.0986 15.926 31.4736 16.301L34.3018 19.1295C34.4872 19.3155 34.7077 19.4631 34.9503 19.5636C35.193 19.6641 35.4531 19.7157 35.7158 19.7154Z" fill="url(#paint6_linear_68_717)"/>
<path d="M79.628 11.18C80.0208 11.1801 80.4048 11.0646 80.7324 10.8479C81.0599 10.6311 81.3164 10.3228 81.4698 9.96125L83.0333 6.27918C83.136 6.03744 83.19 5.77785 83.1923 5.51523C83.1946 5.25261 83.1452 4.9921 83.0469 4.74857C82.9485 4.50505 82.8032 4.28328 82.6191 4.09593C82.4351 3.90858 82.2159 3.75931 81.9742 3.65666C81.7324 3.554 81.4728 3.49997 81.2102 3.49764C80.9476 3.49531 80.6871 3.54473 80.4436 3.64307C80.2 3.74142 79.9783 3.88677 79.7909 4.07083C79.6036 4.25488 79.4543 4.47403 79.3517 4.71577L77.7882 8.39784C77.6594 8.70192 77.6078 9.03315 77.6381 9.362C77.6683 9.69084 77.7795 10.0071 77.9617 10.2825C78.1438 10.558 78.3913 10.7841 78.6821 10.9407C78.9728 11.0973 79.2978 11.1795 79.628 11.18Z" fill="url(#paint7_linear_68_717)"/>
<path d="M100.039 63.4689L103.721 65.0319C103.963 65.135 104.223 65.1894 104.485 65.192C104.748 65.1946 105.009 65.1454 105.253 65.0471C105.497 64.9488 105.719 64.8034 105.906 64.6192C106.094 64.435 106.243 64.2157 106.346 63.9737C106.449 63.7317 106.503 63.4718 106.505 63.2089C106.507 62.9461 106.457 62.6853 106.359 62.4417C106.26 62.198 106.114 61.9762 105.93 61.789C105.745 61.6017 105.526 61.4526 105.283 61.3503L101.602 59.7873C101.114 59.5801 100.563 59.5754 100.071 59.7741C99.5796 59.9728 99.1869 60.3587 98.9797 60.8469C98.7725 61.3351 98.7677 61.8856 98.9665 62.3773C99.1652 62.8691 99.5511 63.2617 100.039 63.4689Z" fill="url(#paint8_linear_68_717)"/>
<path d="M27.961 28.5293L24.2794 26.9664C24.0376 26.8633 23.7778 26.8089 23.5149 26.8063C23.252 26.8036 22.9912 26.8529 22.7474 26.9512C22.5036 27.0495 22.2815 27.1949 22.094 27.379C21.9064 27.5632 21.757 27.7826 21.6543 28.0246C21.5516 28.2666 21.4976 28.5265 21.4954 28.7893C21.4933 29.0522 21.5429 29.3129 21.6416 29.5566C21.7403 29.8002 21.8861 30.022 22.0706 30.2093C22.2551 30.3966 22.4747 30.5456 22.7169 30.6479L26.3985 32.2109C26.6403 32.3135 26.8998 32.3675 27.1624 32.3698C27.425 32.372 27.6855 32.3226 27.929 32.2242C28.1725 32.1258 28.3942 31.9804 28.5815 31.7963C28.7688 31.6123 28.918 31.3931 29.0206 31.1514C29.1232 30.9096 29.1771 30.6501 29.1794 30.3875C29.1817 30.1249 29.1322 29.8644 29.0338 29.6209C28.9354 29.3774 28.7901 29.1557 28.606 28.9684C28.4219 28.7811 28.2028 28.6319 27.961 28.5293Z" fill="url(#paint9_linear_68_717)"/>
<path d="M104.047 27.6621L100.338 29.1607C100.093 29.2582 99.8701 29.4031 99.6815 29.587C99.4929 29.771 99.3426 29.9904 99.239 30.2326C99.1355 30.4749 99.0809 30.7352 99.0782 30.9986C99.0756 31.262 99.125 31.5234 99.2237 31.7676C99.3223 32.0119 99.4683 32.2343 99.6531 32.422C99.838 32.6097 100.058 32.759 100.301 32.8614C100.544 32.9638 100.804 33.0172 101.068 33.0186C101.331 33.02 101.592 32.9693 101.836 32.8695L105.545 31.3711C105.788 31.2727 106.01 31.1273 106.198 30.9433C106.385 30.7592 106.534 30.54 106.637 30.2983C106.739 30.0565 106.793 29.7969 106.796 29.5343C106.798 29.2717 106.749 29.0111 106.65 28.7676C106.552 28.5241 106.407 28.3023 106.223 28.115C106.038 27.9276 105.819 27.7783 105.578 27.6757C105.336 27.573 105.076 27.519 104.814 27.5167C104.551 27.5144 104.29 27.5638 104.047 27.6621Z" fill="url(#paint10_linear_68_717)"/>
<path d="M23.205 64.482C23.4614 64.4819 23.7154 64.4323 23.953 64.336L27.662 62.8374C27.9067 62.7399 28.1298 62.595 28.3184 62.4111C28.5069 62.2271 28.6573 62.0077 28.7608 61.7655C28.8643 61.5232 28.919 61.2629 28.9216 60.9995C28.9243 60.7361 28.8748 60.4747 28.7762 60.2305C28.6775 59.9862 28.5316 59.7639 28.3467 59.5762C28.1619 59.3885 27.9418 59.2391 27.6991 59.1367C27.4563 59.0343 27.1958 58.9809 26.9324 58.9795C26.6689 58.9781 26.4078 59.0288 26.164 59.1286L22.455 60.6271C22.0245 60.801 21.6679 61.1193 21.4464 61.5274C21.2249 61.9355 21.1522 62.4079 21.2409 62.8637C21.3296 63.3195 21.5741 63.7302 21.9324 64.0255C22.2908 64.3207 22.7407 64.4821 23.205 64.482Z" fill="url(#paint11_linear_68_717)"/>
<path d="M49.0167 10.913C49.3439 10.9126 49.6662 10.832 49.955 10.6781C50.2439 10.5243 50.4907 10.3019 50.6736 10.0305C50.8566 9.75913 50.9701 9.447 51.0044 9.12151C51.0387 8.79601 50.9926 8.46707 50.8702 8.16353L49.3721 4.45514C49.1735 3.9633 48.7876 3.57051 48.2993 3.36319C47.8111 3.15587 47.2605 3.151 46.7686 3.34964C46.2768 3.54829 45.884 3.93419 45.6767 4.42244C45.4693 4.91069 45.4645 5.4613 45.6631 5.95314L47.1611 9.66151C47.3104 10.0313 47.5668 10.3481 47.8975 10.5711C48.2281 10.7941 48.6178 10.9131 49.0167 10.913Z" fill="url(#paint12_linear_68_717)"/>
<path d="M45.6696 60.195L49.8035 64.329C50.4996 65.025 51.4279 65.44 52.4107 65.4944C53.3936 65.5488 54.3621 65.2389 55.1307 64.624L56.4683 63.554C56.6155 63.6172 56.7635 63.6785 56.9123 63.738L57.1015 65.4403C57.2102 66.4186 57.6759 67.3225 58.4094 67.979C59.1428 68.6355 60.0926 68.9984 61.077 68.9984H66.9231C67.9075 68.9984 68.8573 68.6354 69.5907 67.9789C70.3242 67.3225 70.7899 66.4186 70.8986 65.4402L71.0878 63.7379C71.2366 63.6784 71.3846 63.6171 71.5318 63.5539L72.8693 64.624C73.638 65.2389 74.6064 65.5488 75.5893 65.4944C76.5722 65.4399 77.5004 65.025 78.1965 64.329L82.3304 60.1951C83.0265 59.4991 83.4414 58.5708 83.4958 57.588C83.5502 56.6051 83.2404 55.6367 82.6254 54.868L81.5554 53.5306C81.6186 53.3833 81.6799 53.2353 81.7393 53.0866L83.4417 52.8974C84.4201 52.7888 85.324 52.3231 85.9805 51.5896C86.637 50.8561 87 49.9063 87 48.9219V43.076C87 42.0916 86.637 41.1418 85.9805 40.4083C85.324 39.6749 84.4201 39.2092 83.4418 39.1005L81.7394 38.9114C81.6799 38.7627 81.6186 38.6147 81.5554 38.4674L82.6255 37.1299C83.2404 36.3613 83.5503 35.3928 83.4958 34.41C83.4414 33.4272 83.0265 32.4989 82.3305 31.8028L78.1965 27.669C77.5005 26.9729 76.5722 26.558 75.5893 26.5035C74.6064 26.4491 73.638 26.759 72.8693 27.374L71.5318 28.444C71.3845 28.3808 71.2365 28.3195 71.0878 28.2601L70.8987 26.5577C70.7899 25.5793 70.3243 24.6754 69.5908 24.019C68.8573 23.3625 67.9075 22.9995 66.9231 22.9995H61.077C60.0926 22.9995 59.1428 23.3625 58.4093 24.0189C57.6759 24.6754 57.2102 25.5793 57.1015 26.5577L56.9122 28.26C56.7634 28.3194 56.6154 28.3807 56.4682 28.4439L55.1306 27.3739C54.362 26.7589 53.3935 26.449 52.4107 26.5035C51.4278 26.5579 50.4995 26.9728 49.8034 27.6689L45.6696 31.8028C44.9736 32.4988 44.5587 33.4271 44.5042 34.4099C44.4498 35.3927 44.7597 36.3611 45.3746 37.1298L46.4446 38.4673C46.3814 38.6145 46.3201 38.7625 46.2607 38.9113L44.5583 39.1005C43.58 39.2091 42.676 39.6748 42.0195 40.4083C41.363 41.1418 41 42.0916 41 43.076V48.9219C41 49.9063 41.363 50.8561 42.0195 51.5896C42.676 52.3231 43.5799 52.7887 44.5583 52.8974L46.2607 53.0865C46.3201 53.2353 46.3815 53.3833 46.4447 53.5305L45.3746 54.868C44.7596 55.6366 44.4498 56.605 44.5042 57.5879C44.5586 58.5707 44.9736 59.499 45.6696 60.195ZM45 48.9219V43.076L49.2864 42.5997C49.661 40.9707 50.3052 39.4157 51.1923 37.9989L48.4981 34.6311L52.6319 30.4973L55.9997 33.1915C57.4166 32.3045 58.9716 31.6603 60.6007 31.2856L61.077 26.9994H66.9231L67.3994 31.2856C69.0284 31.6603 70.5835 32.3044 72.0004 33.1915L75.3682 30.4973L79.502 34.6311L76.8077 37.9989C77.6948 39.4156 78.339 40.9707 78.7137 42.5997L83 43.076V48.9219L78.7137 49.3982C78.339 51.0272 77.6948 52.5823 76.8077 53.9991L79.502 57.3667L75.3681 61.5006L72.0003 58.8064C70.5835 59.6935 69.0284 60.3376 67.3993 60.7122L66.923 64.9984H61.077L60.6007 60.7122C58.9716 60.3376 57.4165 59.6934 55.9997 58.8064L52.6319 61.5006L48.4981 57.3667L51.1923 53.9991C50.3052 52.5823 49.661 51.0272 49.2864 49.3982L45 48.9219Z" fill="url(#paint13_linear_68_717)"/>
<path d="M64 55.9986C65.9778 55.9986 67.9111 55.4121 69.5555 54.3132C71.2 53.2144 72.4816 51.6526 73.2385 49.8254C73.9953 47.9982 74.1933 45.9876 73.8074 44.0478C73.4215 42.108 72.4691 40.3263 71.0706 38.9278C69.6721 37.5293 67.8903 36.577 65.9505 36.1911C64.0108 35.8053 62.0001 36.0034 60.1729 36.7603C58.3457 37.5171 56.784 38.7988 55.6852 40.4433C54.5864 42.0878 54 44.0211 54 45.9989C54.003 48.6501 55.0576 51.1918 56.9323 53.0665C58.807 54.9412 61.3488 55.9956 64 55.9986ZM64 39.999C65.1866 39.999 66.3466 40.3509 67.3333 41.0102C68.3199 41.6695 69.0889 42.6065 69.543 43.7029C69.9971 44.7992 70.1159 46.0056 69.8844 47.1694C69.6529 48.3333 69.0814 49.4023 68.2424 50.2414C67.4033 51.0805 66.3342 51.6519 65.1703 51.8834C64.0065 52.1149 62.8001 51.9961 61.7038 51.542C60.6075 51.0879 59.6704 50.3189 59.0112 49.3322C58.3519 48.3455 58 47.1855 58 45.9989C58 45.211 58.1552 44.4307 58.4567 43.7028C58.7583 42.9749 59.2002 42.3134 59.7574 41.7563C60.3145 41.1991 60.976 40.7572 61.7039 40.4557C62.4319 40.1541 63.2121 39.999 64 39.999Z" fill="url(#paint14_linear_68_717)"/>
<path d="M78.9481 105.012C79.2493 105.948 79.4251 106.92 79.4709 107.902L102.362 96.1451C102.569 96.0389 102.8 95.9881 103.033 95.9975C103.265 96.0069 103.491 96.0762 103.689 96.1988C103.935 96.362 104.137 96.5826 104.278 96.8413C104.419 97.1001 104.495 97.3893 104.499 97.684C104.517 97.9776 104.466 98.2714 104.349 98.5413C104.232 98.8112 104.053 99.0496 103.826 99.2368L66.7948 123.368C66.3796 123.644 65.9134 123.835 65.4236 123.929C64.9338 124.023 64.4302 124.018 63.9423 123.915L40.5184 115.075C40.4823 115.062 40.4452 115.049 40.4081 115.037C39.7736 114.841 39.126 114.689 38.4702 114.584C38.3927 115.943 38.0363 117.271 37.4231 118.486C38.0123 118.552 38.5945 118.67 39.163 118.839L62.6561 127.705C62.7322 127.733 62.8098 127.757 62.8885 127.777C63.9218 128.031 64.9964 128.068 66.0447 127.886C67.093 127.704 68.0922 127.307 68.9794 126.72L106.068 102.55C106.1 102.529 106.133 102.506 106.164 102.484C106.92 101.909 107.527 101.16 107.933 100.301C108.339 99.442 108.532 98.4979 108.497 97.5485C108.461 96.599 108.198 95.6721 107.729 94.8459C107.26 94.0196 106.599 93.3184 105.802 92.8014C105.016 92.3164 104.118 92.0419 103.196 92.0044C102.273 91.967 101.357 92.1678 100.534 92.5875L78.5114 103.898C78.6768 104.261 78.8226 104.633 78.9481 105.012Z" fill="url(#paint15_linear_68_717)"/>
<path d="M69.0059 110.873L51.6602 103.352C51.4191 103.247 51.1597 103.19 50.8968 103.186C50.6338 103.181 50.3725 103.228 50.1278 103.324C49.8831 103.421 49.6599 103.564 49.4708 103.747C49.2817 103.93 49.1305 104.148 49.0258 104.389C48.9212 104.631 48.8651 104.89 48.8609 105.153C48.8567 105.416 48.9043 105.677 49.0012 105.922C49.098 106.166 49.2421 106.389 49.4253 106.578C49.6084 106.767 49.8269 106.918 50.0684 107.022L67.4131 114.543C68.1027 114.845 68.847 115.001 69.5997 115.003C70.6528 114.983 71.6805 114.677 72.5726 114.117C73.4647 113.557 74.1874 112.764 74.6631 111.824C75.1161 110.977 75.3926 110.047 75.4759 109.089C75.5591 108.132 75.4474 107.168 75.1475 106.255C74.8978 105.44 74.4833 104.685 73.9298 104.037C73.3763 103.389 72.6955 102.862 71.9297 102.488L53.085 93.5494C51.9421 93.0001 50.6466 92.8545 49.4102 93.1363L37.571 95.815C38.1372 97.0376 38.4483 98.3628 38.4854 99.7096L50.293 97.0376C50.6563 96.9575 51.036 97.0019 51.3711 97.1636L70.2149 106.101C70.4883 106.245 70.7294 106.443 70.9237 106.683C71.118 106.924 71.2612 107.201 71.3447 107.498C71.4746 107.895 71.5239 108.313 71.4897 108.729C71.4555 109.145 71.3385 109.55 71.1455 109.92C70.9834 110.327 70.6691 110.654 70.2694 110.832C69.8698 111.01 69.4164 111.025 69.0059 110.873Z" fill="url(#paint16_linear_68_717)"/>
<path d="M26.5 93.998C24.9093 93.9998 23.3841 94.6324 22.2593 95.7572C21.1345 96.882 20.5018 98.4071 20.5 99.9979V113.998C20.5018 115.588 21.1345 117.113 22.2593 118.238C23.3841 119.363 24.9092 119.996 26.5 119.997H28.5C30.0907 119.996 31.6159 119.363 32.7407 118.238C33.8655 117.113 34.4982 115.588 34.5 113.998V99.9979C34.4982 98.4071 33.8655 96.882 32.7407 95.7572C31.6159 94.6324 30.0907 93.9998 28.5 93.998H26.5ZM30.5 99.9979V113.998C30.4993 114.528 30.2884 115.036 29.9134 115.411C29.5385 115.786 29.0302 115.997 28.5 115.997H26.5C25.9698 115.997 25.4615 115.786 25.0866 115.411C24.7116 115.036 24.5007 114.528 24.5 113.998V99.9979C24.5007 99.4677 24.7116 98.9594 25.0866 98.5844C25.4615 98.2095 25.9698 97.9986 26.5 97.9979H28.5C29.0302 97.9986 29.5385 98.2095 29.9134 98.5844C30.2884 98.9594 30.4993 99.4677 30.5 99.9979Z" fill="url(#paint17_linear_68_717)"/>
<path d="M34.2334 62.6292C35.0684 64.2982 36.0244 66.0041 37.1572 67.8469C37.8965 69.0471 38.7959 70.3956 39.7471 71.8234C42.7644 76.3508 46.6827 82.2324 49.3473 89.0873C50.8354 88.8833 52.3506 89.0331 53.7698 89.5247C50.9693 81.4524 46.4744 74.7046 43.0762 69.6057C42.1445 68.2082 41.2647 66.888 40.5645 65.7503C39.4942 64.0096 38.5928 62.4032 37.8106 60.8412C35.4369 56.4364 34.1316 51.5353 34 46.5334C34 29.6969 47.1846 15.9994 63.3906 15.9994H64.6094C80.8154 15.9994 94 29.6969 94 46.5334C93.8695 51.5347 92.5645 56.4353 90.1904 60.8392C89.4023 62.4119 88.502 64.0184 87.4365 65.7492C86.7344 66.8889 85.8535 68.2101 84.9219 69.6095C81.0479 75.4228 75.7469 83.3802 73.1595 92.9976H66V78.998H70C70.5304 78.998 71.0391 78.7873 71.4142 78.4122C71.7892 78.0371 71.9999 77.5285 71.9999 76.998C71.9999 76.4676 71.7892 75.9589 71.4142 75.5839C71.0391 75.2088 70.5304 74.9981 70 74.9981H58C57.4696 74.9981 56.9609 75.2088 56.5858 75.5839C56.2108 75.9589 56.0001 76.4676 56.0001 76.998C56.0001 77.5285 56.2108 78.0371 56.5858 78.4122C56.9609 78.7873 57.4696 78.998 58 78.998H62V92.9977H61.2552L69.6878 96.9976H72.6157C72.581 97.4122 72.5474 97.8675 72.5142 98.3382L73.6426 98.8735C74.653 99.3553 75.574 100.005 76.3665 100.796C76.4077 98.5523 76.6205 96.3152 77.0029 94.1041C79.4131 85.0896 84.5205 77.4238 88.25 71.8273C89.2031 70.3986 90.1025 69.048 90.8428 67.8459C91.9707 66.0139 92.9268 64.3079 93.7676 62.6277C96.4238 57.6702 97.8738 52.1563 98 46.5334C98 27.4913 83.0215 11.9995 64.6094 11.9995H63.3906C44.9785 11.9995 30 27.4913 30 46.5334C30.1269 52.1568 31.5772 57.6711 34.2334 62.6292Z" fill="url(#paint18_linear_68_717)"/>
<defs>
<linearGradient id="paint0_linear_68_717" x1="64" y1="0" x2="64" y2="7.99994" gradientUnits="userSpaceOnUse">
<stop stop-color="#0087A7"/>
<stop offset="1" stop-color="#99BE04"/>
</linearGradient>
<linearGradient id="paint1_linear_68_717" x1="106" y1="43.999" x2="106" y2="47.999" gradientUnits="userSpaceOnUse">
<stop stop-color="#0087A7"/>
<stop offset="1" stop-color="#99BE04"/>
</linearGradient>
<linearGradient id="paint2_linear_68_717" x1="22.0055" y1="43.999" x2="22.0055" y2="47.999" gradientUnits="userSpaceOnUse">
<stop stop-color="#0087A7"/>
<stop offset="1" stop-color="#99BE04"/>
</linearGradient>
<linearGradient id="paint3_linear_68_717" x1="93.6982" y1="12.8872" x2="93.6982" y2="19.7153" gradientUnits="userSpaceOnUse">
<stop stop-color="#0087A7"/>
<stop offset="1" stop-color="#99BE04"/>
</linearGradient>
<linearGradient id="paint4_linear_68_717" x1="34.3018" y1="72.2827" x2="34.3018" y2="79.1103" gradientUnits="userSpaceOnUse">
<stop stop-color="#0087A7"/>
<stop offset="1" stop-color="#99BE04"/>
</linearGradient>
<linearGradient id="paint5_linear_68_717" x1="93.6982" y1="72.2827" x2="93.6982" y2="79.1105" gradientUnits="userSpaceOnUse">
<stop stop-color="#0087A7"/>
<stop offset="1" stop-color="#99BE04"/>
</linearGradient>
<linearGradient id="paint6_linear_68_717" x1="34.3019" y1="12.8872" x2="34.3019" y2="19.7154" gradientUnits="userSpaceOnUse">
<stop stop-color="#0087A7"/>
<stop offset="1" stop-color="#99BE04"/>
</linearGradient>
<linearGradient id="paint7_linear_68_717" x1="80.411" y1="3.49756" x2="80.411" y2="11.18" gradientUnits="userSpaceOnUse">
<stop stop-color="#0087A7"/>
<stop offset="1" stop-color="#99BE04"/>
</linearGradient>
<linearGradient id="paint8_linear_68_717" x1="102.663" y1="59.6284" x2="102.663" y2="65.1921" gradientUnits="userSpaceOnUse">
<stop stop-color="#0087A7"/>
<stop offset="1" stop-color="#99BE04"/>
</linearGradient>
<linearGradient id="paint9_linear_68_717" x1="25.3374" y1="26.8062" x2="25.3374" y2="32.3698" gradientUnits="userSpaceOnUse">
<stop stop-color="#0087A7"/>
<stop offset="1" stop-color="#99BE04"/>
</linearGradient>
<linearGradient id="paint10_linear_68_717" x1="102.937" y1="27.5166" x2="102.937" y2="33.0186" gradientUnits="userSpaceOnUse">
<stop stop-color="#0087A7"/>
<stop offset="1" stop-color="#99BE04"/>
</linearGradient>
<linearGradient id="paint11_linear_68_717" x1="25.0629" y1="58.9795" x2="25.0629" y2="64.482" gradientUnits="userSpaceOnUse">
<stop stop-color="#0087A7"/>
<stop offset="1" stop-color="#99BE04"/>
</linearGradient>
<linearGradient id="paint12_linear_68_717" x1="48.2665" y1="3.2041" x2="48.2665" y2="10.913" gradientUnits="userSpaceOnUse">
<stop stop-color="#0087A7"/>
<stop offset="1" stop-color="#99BE04"/>
</linearGradient>
<linearGradient id="paint13_linear_68_717" x1="64" y1="22.9995" x2="64" y2="68.9984" gradientUnits="userSpaceOnUse">
<stop stop-color="#0087A7"/>
<stop offset="1" stop-color="#99BE04"/>
</linearGradient>
<linearGradient id="paint14_linear_68_717" x1="63.9998" y1="35.999" x2="63.9998" y2="55.9986" gradientUnits="userSpaceOnUse">
<stop stop-color="#0087A7"/>
<stop offset="1" stop-color="#99BE04"/>
</linearGradient>
<linearGradient id="paint15_linear_68_717" x1="72.9621" y1="92" x2="72.9621" y2="128" gradientUnits="userSpaceOnUse">
<stop stop-color="#0087A7"/>
<stop offset="1" stop-color="#99BE04"/>
</linearGradient>
<linearGradient id="paint16_linear_68_717" x1="56.5368" y1="92.9961" x2="56.5368" y2="115.003" gradientUnits="userSpaceOnUse">
<stop stop-color="#0087A7"/>
<stop offset="1" stop-color="#99BE04"/>
</linearGradient>
<linearGradient id="paint17_linear_68_717" x1="27.5" y1="93.998" x2="27.5" y2="119.997" gradientUnits="userSpaceOnUse">
<stop stop-color="#0087A7"/>
<stop offset="1" stop-color="#99BE04"/>
</linearGradient>
<linearGradient id="paint18_linear_68_717" x1="64" y1="11.9995" x2="64" y2="100.796" gradientUnits="userSpaceOnUse">
<stop stop-color="#0087A7"/>
<stop offset="1" stop-color="#99BE04"/>
</linearGradient>
</defs>
</svg>
