<svg width="115" height="115" viewBox="0 0 115 115" fill="none" xmlns="http://www.w3.org/2000/svg">
<path d="M106.925 50.138C106.484 37.594 101.405 25.864 92.485 16.9443C83.1359 7.59336 70.7105 2.44531 57.4999 2.44531C30.8181 2.44531 9.0166 23.6826 8.07684 50.138C4.00512 51.9474 1.15527 56.0227 1.15527 60.7593V73.8082C1.15527 80.2159 6.36801 85.4304 12.7775 85.4304C16.9246 85.4304 20.2974 82.0577 20.2974 77.9105V56.6552C20.2974 52.7614 17.311 49.5863 13.5142 49.209C14.9157 26.1605 34.1028 7.83594 57.4999 7.83594C69.273 7.83594 80.3435 12.4252 88.6757 20.7573C96.3267 28.4084 100.805 38.381 101.478 49.2108C97.6852 49.5917 94.7042 52.765 94.7042 56.6552V77.9087C94.7042 81.8348 97.7373 85.0297 101.579 85.3621V90.733C101.579 96.7812 96.6574 101.701 90.6091 101.701H82.4854C82.0865 100.562 81.4612 99.5089 80.5843 98.6356C79.048 97.0921 76.9996 96.2422 74.8182 96.2422H66.4447C65.2426 96.2422 64.089 96.4973 63.0325 96.9897C60.1503 98.314 58.2887 101.221 58.2887 104.396C58.2887 106.578 59.1386 108.626 60.6786 110.159C62.2185 111.702 64.2669 112.552 66.4447 112.552H74.8182C78.2897 112.552 81.3498 110.308 82.4908 107.092H90.6091C99.6312 107.092 106.97 99.7533 106.97 90.733V84.4026C111.016 82.5823 113.844 78.5214 113.844 73.8046V60.7557C113.844 56.0227 110.995 51.9474 106.925 50.138ZM14.905 56.6552V77.9087C14.905 79.082 13.9508 80.038 12.7757 80.038C9.34004 80.038 6.5441 77.242 6.5441 73.8064V60.7575C6.5441 57.3201 9.34004 54.5259 12.7757 54.5259C13.9508 54.5259 14.905 55.4819 14.905 56.6552ZM77.5225 104.975C77.2547 106.244 76.1155 107.165 74.8164 107.165H66.4429C65.7062 107.165 65.0144 106.878 64.4861 106.35C63.965 105.83 63.6775 105.137 63.6775 104.4C63.6775 103.324 64.3082 102.341 65.2965 101.886C65.6487 101.721 66.035 101.636 66.4429 101.636H74.8164C75.5531 101.636 76.2449 101.922 76.7714 102.45C77.2924 102.97 77.5799 103.663 77.5799 104.4C77.5817 104.598 77.5602 104.795 77.5225 104.975ZM108.454 73.8064C108.454 77.242 105.658 80.038 102.222 80.038C101.049 80.038 100.093 79.0838 100.093 77.9087V56.6552C100.093 55.4819 101.047 54.5259 102.222 54.5259C105.658 54.5259 108.454 57.3219 108.454 60.7575V73.8064Z" fill="url(#paint0_linear_68_737)"/>
<path d="M74.953 74.7353C81.2511 74.7353 86.3739 69.6106 86.3739 63.3143V40.043C86.3739 36.9991 85.1844 34.1313 83.0246 31.9714C80.8647 29.8116 77.9987 28.6221 74.953 28.6221H40.0469C33.7489 28.6221 28.626 33.745 28.626 40.043V63.3143C28.626 69.6124 33.7489 74.7353 40.0469 74.7353H40.2607V80.7656C40.2607 83.0656 41.6318 85.1068 43.7521 85.9675C44.4367 86.2425 45.1482 86.379 45.8526 86.379C47.3207 86.379 48.751 85.7968 49.7986 84.7133L59.8305 74.7353H74.953ZM56.8207 70.1281L45.964 80.9255C45.9155 80.9758 45.8796 81.0136 45.7771 80.9686C45.6532 80.9183 45.6532 80.8375 45.6532 80.7656V72.04C45.6532 70.5521 44.4475 69.3446 42.9579 69.3446H40.0487C36.7227 69.3446 34.0184 66.6386 34.0184 63.3143V40.043C34.0184 36.717 36.7227 34.0127 40.0487 34.0127H74.9548C76.5612 34.0127 78.0724 34.6416 79.2152 35.7826C80.358 36.9254 80.9851 38.4384 80.9851 40.043V63.3143C80.9851 66.6404 78.279 69.3446 74.9548 69.3446H58.7218C58.0085 69.3446 57.3257 69.6268 56.8207 70.1281Z" fill="url(#paint1_linear_68_737)"/>
<path d="M44.4062 48.1328C42.214 48.1328 40.4297 49.9189 40.4297 52.1093C40.4297 54.2997 42.2158 56.0858 44.4062 56.0858C46.6002 56.0858 48.3862 54.2997 48.3862 52.1093C48.3862 49.9189 46.602 48.1328 44.4062 48.1328Z" fill="url(#paint2_linear_68_737)"/>
<path d="M57.498 48.1328C55.3058 48.1328 53.5215 49.9189 53.5215 52.1093C53.5215 54.2997 55.3076 56.0858 57.498 56.0858C59.6938 56.0858 61.478 54.2997 61.478 52.1093C61.478 49.9189 59.6938 48.1328 57.498 48.1328Z" fill="url(#paint3_linear_68_737)"/>
<path d="M70.59 48.1328C68.3978 48.1328 66.6135 49.9189 66.6135 52.1093C66.6135 54.2997 68.3996 56.0858 70.59 56.0858C72.784 56.0858 74.5701 54.2997 74.5701 52.1093C74.5701 49.9189 72.784 48.1328 70.59 48.1328Z" fill="url(#paint4_linear_68_737)"/>
<defs>
<linearGradient id="paint0_linear_68_737" x1="57.4999" y1="2.44531" x2="57.4999" y2="112.552" gradientUnits="userSpaceOnUse">
<stop stop-color="#0087A7"/>
<stop offset="1" stop-color="#99BE04"/>
</linearGradient>
<linearGradient id="paint1_linear_68_737" x1="57.5" y1="28.6221" x2="57.5" y2="86.379" gradientUnits="userSpaceOnUse">
<stop stop-color="#0087A7"/>
<stop offset="1" stop-color="#99BE04"/>
</linearGradient>
<linearGradient id="paint2_linear_68_737" x1="44.408" y1="48.1328" x2="44.408" y2="56.0858" gradientUnits="userSpaceOnUse">
<stop stop-color="#0087A7"/>
<stop offset="1" stop-color="#99BE04"/>
</linearGradient>
<linearGradient id="paint3_linear_68_737" x1="57.4998" y1="48.1328" x2="57.4998" y2="56.0858" gradientUnits="userSpaceOnUse">
<stop stop-color="#0087A7"/>
<stop offset="1" stop-color="#99BE04"/>
</linearGradient>
<linearGradient id="paint4_linear_68_737" x1="70.5918" y1="48.1328" x2="70.5918" y2="56.0858" gradientUnits="userSpaceOnUse">
<stop stop-color="#0087A7"/>
<stop offset="1" stop-color="#99BE04"/>
</linearGradient>
</defs>
</svg>
