<svg width="72" height="72" viewBox="0 0 72 72" fill="none" xmlns="http://www.w3.org/2000/svg">
<path d="M36 23.0667C28.3922 23.0667 22.2019 29.2556 22.2019 36.8648C22.2019 44.4741 28.3908 50.663 36 50.663C43.6092 50.663 49.7981 44.4741 49.7981 36.8648C49.7981 29.2556 43.6078 23.0667 36 23.0667ZM36 48.9741C29.3231 48.9741 23.8894 43.5417 23.8894 36.8634C23.8894 30.1852 29.3217 24.7528 36 24.7528C42.6783 24.7528 48.1106 30.1852 48.1106 36.8634C48.1106 43.5417 42.6769 48.9741 36 48.9741ZM69.0469 35.1562H66.5887C65.7155 19.3317 52.7794 6.67125 36.8438 6.23812V2.95312C36.8438 2.48766 36.4655 2.10938 36 2.10938C35.5345 2.10938 35.1562 2.48766 35.1562 2.95312V6.23812C19.2206 6.67125 6.28453 19.3331 5.41125 35.1562H2.95312C2.48766 35.1562 2.10938 35.5345 2.10938 36C2.10938 36.4655 2.48766 36.8438 2.95312 36.8438H5.36344V36.8634C5.36344 53.4741 18.6525 67.0402 35.1562 67.4888V69.0469C35.1562 69.5123 35.5345 69.8906 36 69.8906C36.4655 69.8906 36.8438 69.5123 36.8438 69.0469V67.4888C53.3489 67.0402 66.6366 53.4755 66.6366 36.8634C66.6366 36.8564 66.6366 36.8508 66.6366 36.8438H69.0469C69.5123 36.8438 69.8906 36.4655 69.8906 36C69.8906 35.5345 69.5123 35.1562 69.0469 35.1562ZM64.9491 36.8634C64.9491 52.5445 52.418 65.3512 36.8438 65.7998V60.7936C36.8438 60.3281 36.4655 59.9498 36 59.9498C35.5345 59.9498 35.1562 60.3281 35.1562 60.7936V65.7998C19.582 65.3512 7.05094 52.5445 7.05094 36.8634C7.05094 36.8564 7.05094 36.8508 7.05094 36.8438H11.2078C11.6733 36.8438 12.0516 36.4655 12.0516 36C12.0516 35.5345 11.6733 35.1562 11.2078 35.1562H7.10156C7.97203 20.2641 20.1516 8.35875 35.1562 7.92703V11.2064C35.1562 11.6719 35.5345 12.0502 36 12.0502C36.4655 12.0502 36.8438 11.6719 36.8438 11.2064V7.92703C51.8484 8.35875 64.028 20.2641 64.8984 35.1562H60.7936C60.3281 35.1562 59.9498 35.5345 59.9498 36C59.9498 36.4655 60.3281 36.8438 60.7936 36.8438H64.9505C64.9491 36.8508 64.9491 36.8564 64.9491 36.8634ZM44.318 31.4452C44.647 31.7742 44.647 32.3086 44.318 32.6377L34.6753 42.2803C34.5164 42.4392 34.3027 42.5278 34.0791 42.5278C33.8555 42.5278 33.6403 42.4392 33.4828 42.2803L27.6834 36.4809C27.3544 36.1519 27.3544 35.6175 27.6834 35.2884C28.0125 34.9594 28.5469 34.9594 28.8773 35.2884L34.0805 40.4916L43.1269 31.4452C43.4545 31.1161 43.9889 31.1161 44.318 31.4452Z" fill="url(#paint0_linear_391_1755)"/>
<defs>
<linearGradient id="paint0_linear_391_1755" x1="36" y1="2.10937" x2="36" y2="69.8906" gradientUnits="userSpaceOnUse">
<stop stop-color="#0086A6"/>
<stop offset="1" stop-color="#0086A6"/>
</linearGradient>
</defs>
</svg>
