<svg width="72" height="72" viewBox="0 0 72 72" fill="none" xmlns="http://www.w3.org/2000/svg">
<path d="M6.32812 2.75H65.6719C68.8851 2.75 71.5 5.36494 71.5 8.57812V63.4219C71.5 66.6351 68.8851 69.25 65.6719 69.25H6.32812C3.11494 69.25 0.5 66.6351 0.5 63.4219V8.57812C0.5 5.36494 3.11494 2.75 6.32812 2.75ZM3.71875 63.4219C3.71875 64.8611 4.88887 66.0312 6.32812 66.0312H65.6719C67.1111 66.0312 68.2812 64.8611 68.2812 63.4219V14.4062H3.71875V63.4219ZM6.32812 5.96875C4.88887 5.96875 3.71875 7.13887 3.71875 8.57812V11.1875H55.625V5.96875H6.32812ZM58.8438 11.1875H68.2812V8.57812C68.2812 7.13887 67.1111 5.96875 65.6719 5.96875H58.8438V11.1875Z" fill="url(#paint0_linear_391_2051)" stroke="#198CB3"/>
<path d="M30.8623 22.2168C33.128 18.4406 38.8743 18.4433 41.1387 22.2168L59 51.9863C61.3329 55.8745 58.5348 60.8125 54.0029 60.8125H17.999C13.4644 60.8125 10.6701 55.8721 13.001 51.9863L30.8623 22.2168ZM36.002 22.6045C35.096 22.6042 34.1425 23.0073 33.623 23.873L15.7617 53.6416C14.7168 55.3833 15.971 57.5938 17.999 57.5938H54.0029C56.034 57.5938 57.2835 55.3807 56.2402 53.6416L38.3789 23.873C37.8601 23.0084 36.9077 22.6049 36.002 22.6045Z" fill="url(#paint1_linear_391_2051)" stroke="#198CB3"/>
<path d="M36.1406 32.2812C37.0294 32.2812 37.75 33.0018 37.75 33.8906V42.3281C37.75 43.2169 37.0294 43.9375 36.1406 43.9375C35.2518 43.9375 34.5312 43.2169 34.5312 42.3281V33.8906C34.5312 33.0018 35.2518 32.2812 36.1406 32.2812Z" fill="url(#paint2_linear_391_2051)" stroke="#198CB3"/>
<path d="M36.1406 49.1562C37.0294 49.1562 37.75 49.8768 37.75 50.7656C37.75 51.6544 37.0294 52.375 36.1406 52.375C35.6867 52.375 35.2012 52.1876 34.8311 51.875C34.4616 51.563 34.25 51.1657 34.25 50.7656C34.25 50.3656 34.4616 49.9683 34.8311 49.6562C35.2012 49.3437 35.6867 49.1562 36.1406 49.1562Z" fill="url(#paint3_linear_391_2051)" stroke="#198CB3"/>
<defs>
<linearGradient id="paint0_linear_391_2051" x1="36" y1="2.25" x2="36" y2="69.75" gradientUnits="userSpaceOnUse">
<stop stop-color="white"/>
<stop offset="1" stop-color="#04B2BE"/>
</linearGradient>
<linearGradient id="paint1_linear_391_2051" x1="36.0011" y1="18.8857" x2="36.0011" y2="61.3127" gradientUnits="userSpaceOnUse">
<stop stop-color="white"/>
<stop offset="1" stop-color="#04B2BE"/>
</linearGradient>
<linearGradient id="paint2_linear_391_2051" x1="36.1406" y1="31.7812" x2="36.1406" y2="44.4375" gradientUnits="userSpaceOnUse">
<stop stop-color="white"/>
<stop offset="1" stop-color="#04B2BE"/>
</linearGradient>
<linearGradient id="paint3_linear_391_2051" x1="36" y1="48.6562" x2="36" y2="52.875" gradientUnits="userSpaceOnUse">
<stop stop-color="white"/>
<stop offset="1" stop-color="#04B2BE"/>
</linearGradient>
</defs>
</svg>
