<svg width="72" height="72" viewBox="0 0 72 72" fill="none" xmlns="http://www.w3.org/2000/svg">
<g clip-path="url(#clip0_391_1695)">
<path d="M51.6 29.1275V27.2729H56.5091C57.1636 27.2729 57.6 26.8366 57.6 26.182V20.5093C57.6 19.8547 57.1636 19.4184 56.5091 19.4184H50.7273C50.7273 13.0911 50.7273 8.18202 50.7273 0.982022C50.7273 0.327477 50.2909 -0.108887 49.6364 -0.108887C45.4909 0.000204198 6.65455 0.000204198 1.09091 0.000204198C0.436364 0.000204198 0 0.436568 0 1.09111V49.5275C0 50.182 0.436364 50.6184 1.09091 50.6184H29.1273C29.1273 62.4002 38.7273 72.0002 50.6182 72.0002C62.4 72.0002 72 62.4002 72 50.5093C72 39.0547 62.9455 29.782 51.6 29.1275ZM55.5273 25.2002H45.8182V21.7093H55.5273V25.2002ZM48.5455 12.3275H34.0364V2.18202H48.5455V12.3275ZM18.8727 2.18202H31.8545V18.5457L26.0727 13.5275C25.6364 13.2002 25.0909 13.2002 24.6545 13.5275L18.8727 18.5457V2.18202ZM16.6909 2.18202V12.3275H2.18182V2.18202H16.6909ZM2.18182 14.5093H16.6909V20.8366C16.6909 21.2729 16.9091 21.6002 17.3455 21.8184C17.7818 22.0366 18.2182 21.9275 18.5455 21.6002L25.4182 15.6002L32.2909 21.6002C32.6182 21.9275 33.0545 21.9275 33.4909 21.8184C33.9273 21.6002 34.1455 21.2729 34.1455 20.8366V14.5093H48.6545V19.5275H44.7273C44.0727 19.5275 43.6364 19.9638 43.6364 20.6184V26.2911C43.6364 26.9457 44.0727 27.382 44.7273 27.382H49.5273V29.2366C38.9455 29.782 30.3273 38.0729 29.2364 48.5457H2.18182V14.5093ZM50.5091 69.8184C39.9273 69.8184 31.2 61.2002 31.2 50.5093C31.2 39.9275 39.8182 31.2002 50.5091 31.2002C61.0909 31.2002 69.8182 39.8184 69.8182 50.5093C69.8182 61.2002 61.2 69.8184 50.5091 69.8184Z" fill="url(#paint0_linear_391_1695)"/>
<path d="M51.5997 46.9092V39.3819C51.5997 38.7274 51.1634 38.291 50.5088 38.291C49.8543 38.291 49.4179 38.7274 49.4179 39.3819V46.9092C47.8906 47.3456 46.7997 48.7637 46.7997 50.5092C46.7997 51.1637 46.9088 51.7092 47.2361 52.2547L42.2179 57.1637C41.7815 57.6001 41.7815 58.2547 42.2179 58.691C42.6543 59.1274 43.3088 59.1274 43.7452 58.691L48.7634 53.7819C49.3088 54.1092 49.9634 54.3274 50.6179 54.3274C52.6906 54.3274 54.327 52.5819 54.327 50.5092C54.2179 48.8728 53.127 47.4547 51.5997 46.9092ZM50.5088 52.1456C49.6361 52.1456 48.9815 51.3819 48.9815 50.5092C48.9815 49.6365 49.6361 48.8728 50.5088 48.8728C51.3815 48.8728 52.0361 49.6365 52.0361 50.5092C52.0361 51.491 51.3815 52.1456 50.5088 52.1456Z" fill="url(#paint1_linear_391_1695)"/>
<path d="M50.5089 37.0911C51.1634 37.0911 51.5998 36.6547 51.5998 36.0002V33.6002C51.5998 32.9456 51.1634 32.5093 50.5089 32.5093C49.8543 32.5093 49.418 32.9456 49.418 33.6002V36.0002C49.418 36.6547 49.9634 37.0911 50.5089 37.0911Z" fill="url(#paint2_linear_391_1695)"/>
<path d="M50.5089 64.0366C49.8543 64.0366 49.418 64.473 49.418 65.1275V67.5275C49.418 68.1821 49.8543 68.6184 50.5089 68.6184C51.1634 68.6184 51.5998 68.1821 51.5998 67.5275V65.1275C51.5998 64.473 51.1634 64.0366 50.5089 64.0366Z" fill="url(#paint3_linear_391_1695)"/>
<path d="M67.4186 49.4185H65.0186C64.3641 49.4185 63.9277 49.8548 63.9277 50.5094C63.9277 51.1639 64.3641 51.6003 65.0186 51.6003H67.4186C68.0732 51.6003 68.5096 51.1639 68.5096 50.5094C68.5096 49.9639 68.0732 49.4185 67.4186 49.4185Z" fill="url(#paint4_linear_391_1695)"/>
<path d="M37.0906 50.5094C37.0906 49.8548 36.6542 49.4185 35.9997 49.4185H33.5997C32.9452 49.4185 32.5088 49.8548 32.5088 50.5094C32.5088 51.1639 32.9452 51.6003 33.5997 51.6003H35.9997C36.6542 51.6003 37.0906 51.1639 37.0906 50.5094Z" fill="url(#paint5_linear_391_1695)"/>
<path d="M57.3816 38.9455C57.927 39.2728 58.5816 39.0546 58.9088 38.5091L60.1088 36.4364C60.4361 35.891 60.2179 35.2364 59.6725 34.9091C59.127 34.5819 58.4725 34.8 58.1452 35.3455L56.9452 37.4182C56.727 37.9637 56.8361 38.6182 57.3816 38.9455Z" fill="url(#paint6_linear_391_1695)"/>
<path d="M43.7453 62.1821C43.1998 61.8548 42.5453 62.073 42.218 62.6185L41.018 64.6912C40.6908 65.2366 40.9089 65.8912 41.4544 66.2185C41.9998 66.5457 42.6544 66.3275 42.9817 65.7821L44.1817 63.7094C44.3998 63.1639 44.1817 62.4003 43.7453 62.1821Z" fill="url(#paint7_linear_391_1695)"/>
<path d="M65.6727 58.2546L63.6 57.0546C63.0545 56.7274 62.4 56.9456 62.0727 57.491C61.7454 58.0365 61.9636 58.691 62.5091 59.0183L64.5818 60.2183C65.1273 60.5456 65.7818 60.3274 66.1091 59.7819C66.3273 59.2365 66.2182 58.5819 65.6727 58.2546Z" fill="url(#paint8_linear_391_1695)"/>
<path d="M35.4548 42.8728L37.5275 44.0728C38.073 44.4 38.7275 44.1819 39.0548 43.6364C39.3821 43.091 39.1639 42.4364 38.6184 42.1091L36.5457 40.9091C36.0003 40.5819 35.3457 40.8 35.0184 41.3455C34.8003 41.891 34.9094 42.5455 35.4548 42.8728Z" fill="url(#paint9_linear_391_1695)"/>
<path d="M63.6 43.9637L65.6728 42.7637C66.2182 42.4365 66.3273 41.7819 66 41.2365C65.6728 40.691 65.0182 40.5819 64.4728 40.9092L62.4 42.1092C61.8546 42.4365 61.7455 43.091 62.0728 43.6365C62.4 44.0728 63.0546 44.1819 63.6 43.9637Z" fill="url(#paint10_linear_391_1695)"/>
<path d="M37.5275 57.1639L35.4547 58.3639C34.9093 58.6912 34.8002 59.3457 35.1275 59.8912C35.4547 60.4367 36.1093 60.5457 36.6547 60.2185L38.7274 59.0185C39.2729 58.6912 39.382 58.0367 39.0547 57.4912C38.7274 57.0548 38.0729 56.8367 37.5275 57.1639Z" fill="url(#paint11_linear_391_1695)"/>
<path d="M59.0181 62.4C58.6909 61.8546 58.0363 61.7455 57.4909 62.0728C56.9454 62.4 56.8363 63.0546 57.1636 63.6L58.3636 65.6728C58.6909 66.2182 59.3454 66.3273 59.8909 66C60.4363 65.6728 60.5454 65.0182 60.2181 64.4728L59.0181 62.4Z" fill="url(#paint12_linear_391_1695)"/>
<path d="M43.5276 39.0547C44.073 38.7274 44.1821 38.0729 43.8548 37.5275L42.6548 35.4547C42.3276 34.9093 41.673 34.8002 41.1276 35.1275C40.5821 35.4547 40.473 36.1093 40.8003 36.6547L42.0003 38.7274C42.3276 39.1638 43.0912 39.382 43.5276 39.0547Z" fill="url(#paint13_linear_391_1695)"/>
<path d="M5.6729 33.8182L7.41836 31.9637V39.8182C7.41836 40.4728 7.85472 40.9091 8.50927 40.9091C9.16381 40.9091 9.60018 40.4728 9.60018 39.8182V31.9637L11.3456 33.8182C11.782 34.2546 12.4365 34.2546 12.8729 33.8182C13.3093 33.3819 13.3093 32.7273 12.8729 32.291L9.2729 28.4728C9.05472 28.2546 8.83654 28.1455 8.50927 28.1455C8.182 28.1455 7.96381 28.2546 7.74563 28.4728L4.14563 32.291C3.70927 32.7273 3.70927 33.3819 4.14563 33.8182C4.582 34.2546 5.23654 34.2546 5.6729 33.8182Z" fill="url(#paint14_linear_391_1695)"/>
<path d="M16.7999 33.8182L18.5453 31.9637V39.8182C18.5453 40.4728 18.9817 40.9091 19.6362 40.9091C20.2908 40.9091 20.7271 40.4728 20.7271 39.8182V31.9637L22.4726 33.8182C22.9089 34.2546 23.5635 34.2546 23.9999 33.8182C24.4362 33.3819 24.4362 32.7273 23.9999 32.291L20.3999 28.4728C20.1817 28.2546 19.9635 28.1455 19.6362 28.1455C19.3089 28.1455 19.0908 28.2546 18.8726 28.4728L15.2726 32.291C14.8362 32.7273 14.8362 33.3819 15.2726 33.8182C15.7089 34.2546 16.4726 34.2546 16.7999 33.8182Z" fill="url(#paint15_linear_391_1695)"/>
<path d="M23.3456 42H4.90927C4.25472 42 3.81836 42.4364 3.81836 43.0909C3.81836 43.7455 4.25472 44.1818 4.90927 44.1818H23.3456C24.0002 44.1818 24.4365 43.7455 24.4365 43.0909C24.4365 42.5455 24.0002 42 23.3456 42Z" fill="url(#paint16_linear_391_1695)"/>
</g>
<defs>
<linearGradient id="paint0_linear_391_1695" x1="36" y1="-0.108887" x2="36" y2="72.0002" gradientUnits="userSpaceOnUse">
<stop stop-color="#0086A6"/>
<stop offset="1" stop-color="#0086A6"/>
</linearGradient>
<linearGradient id="paint1_linear_391_1695" x1="48.1088" y1="38.291" x2="48.1088" y2="59.0183" gradientUnits="userSpaceOnUse">
<stop stop-color="#0086A6"/>
<stop offset="1" stop-color="#0086A6"/>
</linearGradient>
<linearGradient id="paint2_linear_391_1695" x1="50.5089" y1="32.5093" x2="50.5089" y2="37.0911" gradientUnits="userSpaceOnUse">
<stop stop-color="#0086A6"/>
<stop offset="1" stop-color="#0086A6"/>
</linearGradient>
<linearGradient id="paint3_linear_391_1695" x1="50.5089" y1="64.0366" x2="50.5089" y2="68.6184" gradientUnits="userSpaceOnUse">
<stop stop-color="#0086A6"/>
<stop offset="1" stop-color="#0086A6"/>
</linearGradient>
<linearGradient id="paint4_linear_391_1695" x1="66.2186" y1="49.4185" x2="66.2186" y2="51.6003" gradientUnits="userSpaceOnUse">
<stop stop-color="#0086A6"/>
<stop offset="1" stop-color="#0086A6"/>
</linearGradient>
<linearGradient id="paint5_linear_391_1695" x1="34.7997" y1="49.4185" x2="34.7997" y2="51.6003" gradientUnits="userSpaceOnUse">
<stop stop-color="#0086A6"/>
<stop offset="1" stop-color="#0086A6"/>
</linearGradient>
<linearGradient id="paint6_linear_391_1695" x1="58.5512" y1="34.7554" x2="58.5512" y2="39.0993" gradientUnits="userSpaceOnUse">
<stop stop-color="#0086A6"/>
<stop offset="1" stop-color="#0086A6"/>
</linearGradient>
<linearGradient id="paint7_linear_391_1695" x1="42.5658" y1="62.0283" x2="42.5658" y2="66.3722" gradientUnits="userSpaceOnUse">
<stop stop-color="#0086A6"/>
<stop offset="1" stop-color="#0086A6"/>
</linearGradient>
<linearGradient id="paint8_linear_391_1695" x1="64.0667" y1="56.9009" x2="64.0667" y2="60.3721" gradientUnits="userSpaceOnUse">
<stop stop-color="#0086A6"/>
<stop offset="1" stop-color="#0086A6"/>
</linearGradient>
<linearGradient id="paint9_linear_391_1695" x1="37.0608" y1="40.7554" x2="37.0608" y2="44.2265" gradientUnits="userSpaceOnUse">
<stop stop-color="#0086A6"/>
<stop offset="1" stop-color="#0086A6"/>
</linearGradient>
<linearGradient id="paint10_linear_391_1695" x1="64.0364" y1="40.7251" x2="64.0364" y2="44.0728" gradientUnits="userSpaceOnUse">
<stop stop-color="#0086A6"/>
<stop offset="1" stop-color="#0086A6"/>
</linearGradient>
<linearGradient id="paint11_linear_391_1695" x1="37.0911" y1="57.0063" x2="37.0911" y2="60.4026" gradientUnits="userSpaceOnUse">
<stop stop-color="#0086A6"/>
<stop offset="1" stop-color="#0086A6"/>
</linearGradient>
<linearGradient id="paint12_linear_391_1695" x1="58.6909" y1="61.8887" x2="58.6909" y2="66.1841" gradientUnits="userSpaceOnUse">
<stop stop-color="#0086A6"/>
<stop offset="1" stop-color="#0086A6"/>
</linearGradient>
<linearGradient id="paint13_linear_391_1695" x1="42.3276" y1="34.9434" x2="42.3276" y2="39.2123" gradientUnits="userSpaceOnUse">
<stop stop-color="#0086A6"/>
<stop offset="1" stop-color="#0086A6"/>
</linearGradient>
<linearGradient id="paint14_linear_391_1695" x1="8.50927" y1="28.1455" x2="8.50927" y2="40.9091" gradientUnits="userSpaceOnUse">
<stop stop-color="#0086A6"/>
<stop offset="1" stop-color="#0086A6"/>
</linearGradient>
<linearGradient id="paint15_linear_391_1695" x1="19.6362" y1="28.1455" x2="19.6362" y2="40.9091" gradientUnits="userSpaceOnUse">
<stop stop-color="#0086A6"/>
<stop offset="1" stop-color="#0086A6"/>
</linearGradient>
<linearGradient id="paint16_linear_391_1695" x1="14.1274" y1="42" x2="14.1274" y2="44.1818" gradientUnits="userSpaceOnUse">
<stop stop-color="#0086A6"/>
<stop offset="1" stop-color="#0086A6"/>
</linearGradient>
<clipPath id="clip0_391_1695">
<rect width="72" height="72" fill="white"/>
</clipPath>
</defs>
</svg>
