<svg width="72" height="72" viewBox="0 0 72 72" fill="none" xmlns="http://www.w3.org/2000/svg">
<path d="M61.2559 2.60938H62.0996C66.1266 2.60938 69.3906 5.87341 69.3906 9.90039V10.7441C69.3904 11.2411 68.9814 11.6502 68.4844 11.6504C67.9872 11.6504 67.5783 11.2413 67.5781 10.7441V9.90039C67.5781 6.88298 65.1329 4.42188 62.0996 4.42188H61.2559C60.7586 4.42188 60.3496 4.01292 60.3496 3.51562C60.3496 3.01833 60.7586 2.60938 61.2559 2.60938Z" fill="url(#paint0_linear_391_1577)" stroke="url(#paint1_linear_391_1577)"/>
<path d="M44.0439 2.60938H45.6748C46.1721 2.60938 46.5811 3.01833 46.5811 3.51562C46.5811 4.01292 46.1721 4.42188 45.6748 4.42188H44.0439C43.5467 4.42188 43.1377 4.01292 43.1377 3.51562C43.1377 3.01833 43.5467 2.60938 44.0439 2.60938Z" fill="url(#paint2_linear_391_1577)" stroke="url(#paint3_linear_391_1577)"/>
<path d="M55.5186 2.60938H57.1494C57.6467 2.60938 58.0557 3.01833 58.0557 3.51562C58.0557 4.01292 57.6467 4.42188 57.1494 4.42188H55.5186C55.0213 4.42188 54.6123 4.01292 54.6123 3.51562C54.6123 3.01833 55.0213 2.60938 55.5186 2.60938Z" fill="url(#paint4_linear_391_1577)" stroke="url(#paint5_linear_391_1577)"/>
<path d="M49.7812 2.60938H51.4121C51.9094 2.60938 52.3184 3.01833 52.3184 3.51562C52.3184 4.01292 51.9094 4.42188 51.4121 4.42188H49.7812C49.284 4.42188 48.875 4.01292 48.875 3.51562C48.875 3.01833 49.284 2.60938 49.7812 2.60938Z" fill="url(#paint6_linear_391_1577)" stroke="url(#paint7_linear_391_1577)"/>
<path d="M32.583 2.60938H34.2139C34.7112 2.60938 35.1201 3.01833 35.1201 3.51562C35.1201 4.01292 34.7112 4.42188 34.2139 4.42188H32.583C32.0857 4.42188 31.6768 4.01292 31.6768 3.51562C31.6768 3.01833 32.0857 2.60938 32.583 2.60938Z" fill="url(#paint8_linear_391_1577)" stroke="url(#paint9_linear_391_1577)"/>
<path d="M38.3203 2.60938H39.9512C40.4485 2.60938 40.8574 3.01833 40.8574 3.51562C40.8574 4.01292 40.4485 4.42188 39.9512 4.42188H38.3203C37.823 4.42188 37.4141 4.01292 37.4141 3.51562C37.4141 3.01833 37.823 2.60938 38.3203 2.60938Z" fill="url(#paint10_linear_391_1577)" stroke="url(#paint11_linear_391_1577)"/>
<path d="M68.4844 42.603C68.9815 42.6032 69.3906 43.0121 69.3906 43.5093V44.353C69.3906 48.38 66.1266 51.644 62.0996 51.644H61.2559C60.7587 51.644 60.3498 51.2349 60.3496 50.7378C60.3496 50.2405 60.7586 49.8315 61.2559 49.8315H62.0996C65.117 49.8315 67.5781 47.3863 67.5781 44.353V43.5093C67.5781 43.012 67.9871 42.603 68.4844 42.603Z" fill="url(#paint12_linear_391_1577)" stroke="url(#paint13_linear_391_1577)"/>
<path d="M68.4844 25.4048C68.9817 25.4048 69.3906 25.8137 69.3906 26.311V27.9419C69.3906 28.4392 68.9817 28.8481 68.4844 28.8481C67.9871 28.8481 67.5781 28.4392 67.5781 27.9419V26.311C67.5781 25.8137 67.9871 25.4048 68.4844 25.4048Z" fill="url(#paint14_linear_391_1577)" stroke="url(#paint15_linear_391_1577)"/>
<path d="M68.4844 19.6672C68.9783 19.6672 69.3904 20.0727 69.3906 20.5872V22.219C69.3905 22.7162 68.9816 23.1252 68.4844 23.1252C67.9871 23.1252 67.5782 22.7162 67.5781 22.219V20.5735C67.5781 20.0762 67.9871 19.6672 68.4844 19.6672Z" fill="url(#paint16_linear_391_1577)" stroke="url(#paint17_linear_391_1577)"/>
<path d="M68.4844 36.8796C68.9849 36.8796 69.3906 37.2778 69.3906 37.7859V39.4167C69.3906 39.914 68.9817 40.323 68.4844 40.323C67.9871 40.323 67.5781 39.914 67.5781 39.4167V37.7859C67.5781 37.2886 67.9871 36.8796 68.4844 36.8796Z" fill="url(#paint18_linear_391_1577)" stroke="url(#paint19_linear_391_1577)"/>
<path d="M68.4844 31.1421C68.9817 31.1421 69.3906 31.551 69.3906 32.0483V33.6792C69.3906 34.1765 68.9817 34.5854 68.4844 34.5854C67.9871 34.5854 67.5781 34.1765 67.5781 33.6792V32.0483C67.5781 31.551 67.9871 31.1421 68.4844 31.1421Z" fill="url(#paint20_linear_391_1577)" stroke="url(#paint21_linear_391_1577)"/>
<path d="M68.4844 13.9438C68.9849 13.9438 69.3906 14.342 69.3906 14.8501V16.4956C69.3905 16.9928 68.9816 17.4019 68.4844 17.4019C67.9871 17.4019 67.5782 16.9928 67.5781 16.4956V14.8501C67.5781 14.3528 67.9871 13.9438 68.4844 13.9438Z" fill="url(#paint22_linear_391_1577)" stroke="url(#paint23_linear_391_1577)"/>
<path d="M20.999 31.1763C21.4748 31.0327 21.9817 31.3127 22.1172 31.7905L22.2207 32.1548H34.1436C37.2978 32.1548 39.8455 34.7143 39.8457 37.856V49.7837L40.2139 49.8843C40.5094 49.9649 40.7416 50.1992 40.8203 50.479L40.8232 50.4888C40.9665 50.9645 40.6869 51.4707 40.209 51.606L39.8457 51.7095V63.689C39.8317 66.8459 37.2828 69.3911 34.1436 69.3911H8.3125C5.15488 69.3779 2.60938 66.8287 2.60938 63.689V37.856C2.60955 34.7019 5.16905 32.155 8.31055 32.1548H20.2803L20.3809 31.7866C20.4583 31.5025 20.6863 31.2723 21 31.1772L20.999 31.1763ZM8.31055 33.9673C6.16438 33.9675 4.42205 35.7098 4.42188 37.856V63.689C4.42188 65.8353 6.16427 67.5784 8.31055 67.5786H34.1436C36.29 67.5786 38.0332 65.8354 38.0332 63.689V37.856C38.033 35.7097 36.2899 33.9673 34.1436 33.9673H8.31055Z" fill="url(#paint24_linear_391_1577)" stroke="url(#paint25_linear_391_1577)"/>
<path d="M44.0576 49.8452H45.6885C46.1858 49.8452 46.5947 50.2542 46.5947 50.7515C46.5947 51.2488 46.1858 51.6577 45.6885 51.6577H44.0576C43.5603 51.6577 43.1514 51.2488 43.1514 50.7515C43.1514 50.2542 43.5603 49.8452 44.0576 49.8452Z" fill="url(#paint26_linear_391_1577)" stroke="url(#paint27_linear_391_1577)"/>
<path d="M49.7812 49.8452H51.4268C51.9174 49.8453 52.3184 50.2477 52.3184 50.7515C52.3184 51.2488 51.9094 51.6577 51.4121 51.6577H49.7812C49.284 51.6577 48.875 51.2488 48.875 50.7515C48.875 50.2542 49.284 49.8452 49.7812 49.8452Z" fill="url(#paint28_linear_391_1577)" stroke="url(#paint29_linear_391_1577)"/>
<path d="M55.5186 49.8452H57.1494C57.6575 49.8452 58.0557 50.2509 58.0557 50.7515C58.0557 51.2488 57.6467 51.6577 57.1494 51.6577H55.5186C55.0213 51.6577 54.6123 51.2488 54.6123 50.7515C54.6123 50.2542 55.0213 49.8452 55.5186 49.8452Z" fill="url(#paint30_linear_391_1577)" stroke="url(#paint31_linear_391_1577)"/>
<path d="M27.6328 2.60938H28.4766C28.9737 2.60959 29.3828 3.01846 29.3828 3.51562C29.3828 4.01279 28.9737 4.42166 28.4766 4.42188H27.6328C24.6154 4.42188 22.1543 6.86708 22.1543 9.90039V10.7441C22.1541 11.2413 21.7452 11.6504 21.248 11.6504C20.7476 11.6504 20.342 11.2521 20.3418 10.7441V9.90039C20.3418 5.87341 23.6058 2.60938 27.6328 2.60938Z" fill="url(#paint32_linear_391_1577)" stroke="url(#paint33_linear_391_1577)"/>
<path d="M21.248 13.9297C21.7453 13.9297 22.1543 14.3386 22.1543 14.8359V16.4814C22.1542 16.9787 21.7453 17.3877 21.248 17.3877C20.7508 17.3877 20.3419 16.9787 20.3418 16.4814V14.8359C20.3418 14.3386 20.7508 13.9297 21.248 13.9297Z" fill="url(#paint34_linear_391_1577)" stroke="url(#paint35_linear_391_1577)"/>
<path d="M21.248 19.6812C21.7453 19.6812 22.1543 20.0901 22.1543 20.5874V22.2183C22.1543 22.7156 21.7453 23.1245 21.248 23.1245C20.7508 23.1245 20.3418 22.7156 20.3418 22.2183V20.5874C20.3418 20.0901 20.7508 19.6812 21.248 19.6812Z" fill="url(#paint36_linear_391_1577)" stroke="url(#paint37_linear_391_1577)"/>
<path d="M21.248 25.4187C21.7453 25.4187 22.1543 25.8277 22.1543 26.325V27.9558C22.1543 28.4531 21.7453 28.8621 21.248 28.8621C20.7508 28.8621 20.3418 28.4531 20.3418 27.9558V26.325C20.3418 25.8277 20.7508 25.4187 21.248 25.4187Z" fill="url(#paint38_linear_391_1577)" stroke="url(#paint39_linear_391_1577)"/>
<path d="M54.1689 12.1719H58.8936C59.4049 12.1719 59.8281 12.5951 59.8281 13.1064V17.8174C59.8281 18.0618 59.7279 18.3014 59.5527 18.4766C59.379 18.6502 59.1458 18.7472 58.8975 18.7383L58.8887 18.7373H58.8799C58.3685 18.7373 57.9453 18.3141 57.9453 17.8027V15.3027L45.5049 27.7432C45.1517 28.0963 44.5817 28.0963 44.2285 27.7432C43.8756 27.39 43.8756 26.8209 44.2285 26.4678L56.6699 14.0264H54.1553C53.6503 14.0264 53.2344 13.6096 53.2344 13.0918C53.2346 12.587 53.6513 12.1719 54.1689 12.1719Z" fill="url(#paint40_linear_391_1577)" stroke="url(#paint41_linear_391_1577)"/>
<defs>
<linearGradient id="paint0_linear_391_1577" x1="64.8699" y1="2.10938" x2="64.8699" y2="12.15" gradientUnits="userSpaceOnUse">
<stop stop-color="#0087A7"/>
<stop offset="1" stop-color="#0086A6"/>
</linearGradient>
<linearGradient id="paint1_linear_391_1577" x1="64.8699" y1="2.10938" x2="64.8699" y2="12.15" gradientUnits="userSpaceOnUse">
<stop stop-color="#0087A7"/>
<stop offset="1" stop-color="#0086A6"/>
</linearGradient>
<linearGradient id="paint2_linear_391_1577" x1="44.8596" y1="2.10938" x2="44.8596" y2="4.92188" gradientUnits="userSpaceOnUse">
<stop stop-color="#0087A7"/>
<stop offset="1" stop-color="#0086A6"/>
</linearGradient>
<linearGradient id="paint3_linear_391_1577" x1="44.8596" y1="2.10938" x2="44.8596" y2="4.92188" gradientUnits="userSpaceOnUse">
<stop stop-color="#0087A7"/>
<stop offset="1" stop-color="#0086A6"/>
</linearGradient>
<linearGradient id="paint4_linear_391_1577" x1="56.3342" y1="2.10938" x2="56.3342" y2="4.92188" gradientUnits="userSpaceOnUse">
<stop stop-color="#0087A7"/>
<stop offset="1" stop-color="#0086A6"/>
</linearGradient>
<linearGradient id="paint5_linear_391_1577" x1="56.3342" y1="2.10938" x2="56.3342" y2="4.92188" gradientUnits="userSpaceOnUse">
<stop stop-color="#0087A7"/>
<stop offset="1" stop-color="#0086A6"/>
</linearGradient>
<linearGradient id="paint6_linear_391_1577" x1="50.5969" y1="2.10938" x2="50.5969" y2="4.92188" gradientUnits="userSpaceOnUse">
<stop stop-color="#0087A7"/>
<stop offset="1" stop-color="#0086A6"/>
</linearGradient>
<linearGradient id="paint7_linear_391_1577" x1="50.5969" y1="2.10938" x2="50.5969" y2="4.92188" gradientUnits="userSpaceOnUse">
<stop stop-color="#0087A7"/>
<stop offset="1" stop-color="#0086A6"/>
</linearGradient>
<linearGradient id="paint8_linear_391_1577" x1="33.3986" y1="2.10938" x2="33.3986" y2="4.92188" gradientUnits="userSpaceOnUse">
<stop stop-color="#0087A7"/>
<stop offset="1" stop-color="#0086A6"/>
</linearGradient>
<linearGradient id="paint9_linear_391_1577" x1="33.3986" y1="2.10938" x2="33.3986" y2="4.92188" gradientUnits="userSpaceOnUse">
<stop stop-color="#0087A7"/>
<stop offset="1" stop-color="#0086A6"/>
</linearGradient>
<linearGradient id="paint10_linear_391_1577" x1="39.1359" y1="2.10938" x2="39.1359" y2="4.92188" gradientUnits="userSpaceOnUse">
<stop stop-color="#0087A7"/>
<stop offset="1" stop-color="#0086A6"/>
</linearGradient>
<linearGradient id="paint11_linear_391_1577" x1="39.1359" y1="2.10938" x2="39.1359" y2="4.92188" gradientUnits="userSpaceOnUse">
<stop stop-color="#0087A7"/>
<stop offset="1" stop-color="#0086A6"/>
</linearGradient>
<linearGradient id="paint12_linear_391_1577" x1="64.8699" y1="42.103" x2="64.8699" y2="52.1437" gradientUnits="userSpaceOnUse">
<stop stop-color="#0087A7"/>
<stop offset="1" stop-color="#0086A6"/>
</linearGradient>
<linearGradient id="paint13_linear_391_1577" x1="64.8699" y1="42.103" x2="64.8699" y2="52.1437" gradientUnits="userSpaceOnUse">
<stop stop-color="#0087A7"/>
<stop offset="1" stop-color="#0086A6"/>
</linearGradient>
<linearGradient id="paint14_linear_391_1577" x1="68.4844" y1="24.9048" x2="68.4844" y2="29.3485" gradientUnits="userSpaceOnUse">
<stop stop-color="#0087A7"/>
<stop offset="1" stop-color="#0086A6"/>
</linearGradient>
<linearGradient id="paint15_linear_391_1577" x1="68.4844" y1="24.9048" x2="68.4844" y2="29.3485" gradientUnits="userSpaceOnUse">
<stop stop-color="#0087A7"/>
<stop offset="1" stop-color="#0086A6"/>
</linearGradient>
<linearGradient id="paint16_linear_391_1577" x1="68.4844" y1="19.1672" x2="68.4844" y2="23.625" gradientUnits="userSpaceOnUse">
<stop stop-color="#0087A7"/>
<stop offset="1" stop-color="#0086A6"/>
</linearGradient>
<linearGradient id="paint17_linear_391_1577" x1="68.4844" y1="19.1672" x2="68.4844" y2="23.625" gradientUnits="userSpaceOnUse">
<stop stop-color="#0087A7"/>
<stop offset="1" stop-color="#0086A6"/>
</linearGradient>
<linearGradient id="paint18_linear_391_1577" x1="68.4844" y1="36.3796" x2="68.4844" y2="40.8234" gradientUnits="userSpaceOnUse">
<stop stop-color="#0087A7"/>
<stop offset="1" stop-color="#0086A6"/>
</linearGradient>
<linearGradient id="paint19_linear_391_1577" x1="68.4844" y1="36.3796" x2="68.4844" y2="40.8234" gradientUnits="userSpaceOnUse">
<stop stop-color="#0087A7"/>
<stop offset="1" stop-color="#0086A6"/>
</linearGradient>
<linearGradient id="paint20_linear_391_1577" x1="68.4844" y1="30.6421" x2="68.4844" y2="35.0858" gradientUnits="userSpaceOnUse">
<stop stop-color="#0087A7"/>
<stop offset="1" stop-color="#0086A6"/>
</linearGradient>
<linearGradient id="paint21_linear_391_1577" x1="68.4844" y1="30.6421" x2="68.4844" y2="35.0858" gradientUnits="userSpaceOnUse">
<stop stop-color="#0087A7"/>
<stop offset="1" stop-color="#0086A6"/>
</linearGradient>
<linearGradient id="paint22_linear_391_1577" x1="68.4844" y1="13.4438" x2="68.4844" y2="17.9017" gradientUnits="userSpaceOnUse">
<stop stop-color="#0087A7"/>
<stop offset="1" stop-color="#0086A6"/>
</linearGradient>
<linearGradient id="paint23_linear_391_1577" x1="68.4844" y1="13.4438" x2="68.4844" y2="17.9017" gradientUnits="userSpaceOnUse">
<stop stop-color="#0087A7"/>
<stop offset="1" stop-color="#0086A6"/>
</linearGradient>
<linearGradient id="paint24_linear_391_1577" x1="21.7351" y1="30.6392" x2="21.7351" y2="69.8907" gradientUnits="userSpaceOnUse">
<stop stop-color="#0087A7"/>
<stop offset="1" stop-color="#0086A6"/>
</linearGradient>
<linearGradient id="paint25_linear_391_1577" x1="21.7351" y1="30.6392" x2="21.7351" y2="69.8907" gradientUnits="userSpaceOnUse">
<stop stop-color="#0087A7"/>
<stop offset="1" stop-color="#0086A6"/>
</linearGradient>
<linearGradient id="paint26_linear_391_1577" x1="44.8732" y1="49.3452" x2="44.8732" y2="52.1577" gradientUnits="userSpaceOnUse">
<stop stop-color="#0087A7"/>
<stop offset="1" stop-color="#0086A6"/>
</linearGradient>
<linearGradient id="paint27_linear_391_1577" x1="44.8732" y1="49.3452" x2="44.8732" y2="52.1577" gradientUnits="userSpaceOnUse">
<stop stop-color="#0087A7"/>
<stop offset="1" stop-color="#0086A6"/>
</linearGradient>
<linearGradient id="paint28_linear_391_1577" x1="50.5969" y1="49.3452" x2="50.5969" y2="52.1577" gradientUnits="userSpaceOnUse">
<stop stop-color="#0087A7"/>
<stop offset="1" stop-color="#0086A6"/>
</linearGradient>
<linearGradient id="paint29_linear_391_1577" x1="50.5969" y1="49.3452" x2="50.5969" y2="52.1577" gradientUnits="userSpaceOnUse">
<stop stop-color="#0087A7"/>
<stop offset="1" stop-color="#0086A6"/>
</linearGradient>
<linearGradient id="paint30_linear_391_1577" x1="56.3342" y1="49.3452" x2="56.3342" y2="52.1577" gradientUnits="userSpaceOnUse">
<stop stop-color="#0087A7"/>
<stop offset="1" stop-color="#0086A6"/>
</linearGradient>
<linearGradient id="paint31_linear_391_1577" x1="56.3342" y1="49.3452" x2="56.3342" y2="52.1577" gradientUnits="userSpaceOnUse">
<stop stop-color="#0087A7"/>
<stop offset="1" stop-color="#0086A6"/>
</linearGradient>
<linearGradient id="paint32_linear_391_1577" x1="24.8621" y1="2.10938" x2="24.8621" y2="12.15" gradientUnits="userSpaceOnUse">
<stop stop-color="#0087A7"/>
<stop offset="1" stop-color="#0086A6"/>
</linearGradient>
<linearGradient id="paint33_linear_391_1577" x1="24.8621" y1="2.10938" x2="24.8621" y2="12.15" gradientUnits="userSpaceOnUse">
<stop stop-color="#0087A7"/>
<stop offset="1" stop-color="#0086A6"/>
</linearGradient>
<linearGradient id="paint34_linear_391_1577" x1="21.248" y1="13.4297" x2="21.248" y2="17.8875" gradientUnits="userSpaceOnUse">
<stop stop-color="#0087A7"/>
<stop offset="1" stop-color="#0086A6"/>
</linearGradient>
<linearGradient id="paint35_linear_391_1577" x1="21.248" y1="13.4297" x2="21.248" y2="17.8875" gradientUnits="userSpaceOnUse">
<stop stop-color="#0087A7"/>
<stop offset="1" stop-color="#0086A6"/>
</linearGradient>
<linearGradient id="paint36_linear_391_1577" x1="21.248" y1="19.1812" x2="21.248" y2="23.6249" gradientUnits="userSpaceOnUse">
<stop stop-color="#0087A7"/>
<stop offset="1" stop-color="#0086A6"/>
</linearGradient>
<linearGradient id="paint37_linear_391_1577" x1="21.248" y1="19.1812" x2="21.248" y2="23.6249" gradientUnits="userSpaceOnUse">
<stop stop-color="#0087A7"/>
<stop offset="1" stop-color="#0086A6"/>
</linearGradient>
<linearGradient id="paint38_linear_391_1577" x1="21.248" y1="24.9187" x2="21.248" y2="29.3625" gradientUnits="userSpaceOnUse">
<stop stop-color="#0087A7"/>
<stop offset="1" stop-color="#0086A6"/>
</linearGradient>
<linearGradient id="paint39_linear_391_1577" x1="21.248" y1="24.9187" x2="21.248" y2="29.3625" gradientUnits="userSpaceOnUse">
<stop stop-color="#0087A7"/>
<stop offset="1" stop-color="#0086A6"/>
</linearGradient>
<linearGradient id="paint40_linear_391_1577" x1="51.8961" y1="11.6719" x2="51.8961" y2="28.5082" gradientUnits="userSpaceOnUse">
<stop stop-color="#0087A7"/>
<stop offset="1" stop-color="#0086A6"/>
</linearGradient>
<linearGradient id="paint41_linear_391_1577" x1="51.8961" y1="11.6719" x2="51.8961" y2="28.5082" gradientUnits="userSpaceOnUse">
<stop stop-color="#0087A7"/>
<stop offset="1" stop-color="#0086A6"/>
</linearGradient>
</defs>
</svg>
