<svg width="72" height="72" viewBox="0 0 72 72" fill="none" xmlns="http://www.w3.org/2000/svg">
<mask id="mask0_391_1535" style="mask-type:luminance" maskUnits="userSpaceOnUse" x="0" y="0" width="72" height="72">
<path d="M71 71V1H1V71H71Z" fill="white" stroke="white" stroke-width="2"/>
</mask>
<g mask="url(#mask0_391_1535)">
<path d="M53.37 33.8513C55.7775 30.8602 57.9011 27.6005 59.6897 24.1074L64.1477 25.1846C66.458 25.7428 68.5057 23.5913 67.8347 21.3117L62.5193 3.27096C61.8469 0.991425 58.9599 0.293926 57.3218 2.01518L44.3547 15.6361C42.7163 17.3574 43.5544 20.2078 45.865 20.7661L49.77 21.7097C41.4185 36.1646 25.9244 45.2517 8.96771 45.2517C6.2438 45.2517 4.03613 47.4596 4.03613 50.1835C4.03613 52.906 6.2438 55.1138 8.96771 55.1138C25.0411 55.1138 40.0249 48.3624 50.6152 37.0266" stroke="url(#paint0_linear_391_1535)" stroke-width="2" stroke-miterlimit="10" stroke-linecap="round" stroke-linejoin="round"/>
<path d="M11.5821 61.0755C9.62753 61.0755 8.04297 62.6601 8.04297 64.6147V70.9453H15.1212V64.6147C15.1212 62.6601 13.5366 61.0755 11.5821 61.0755Z" stroke="url(#paint1_linear_391_1535)" stroke-width="2" stroke-miterlimit="10" stroke-linecap="round" stroke-linejoin="round"/>
<path d="M27.1714 62.827V70.9453H20.0938V60.7177C20.0938 58.763 21.6772 57.1781 23.6319 57.1781C24.8384 57.1781 25.903 57.7814 26.5414 58.7039" stroke="url(#paint2_linear_391_1535)" stroke-width="2" stroke-miterlimit="10" stroke-linecap="round" stroke-linejoin="round"/>
<path d="M35.6827 53.8628C33.7281 53.8628 32.1436 55.4473 32.1436 57.4019V70.9453H39.2218V57.4019C39.2218 55.4473 37.6372 53.8628 35.6827 53.8628Z" stroke="url(#paint3_linear_391_1535)" stroke-width="2" stroke-miterlimit="10" stroke-linecap="round" stroke-linejoin="round"/>
<path d="M47.7334 46.3935C45.779 46.3935 44.1943 47.978 44.1943 49.9326V70.9453H51.2724V49.9326C51.2724 47.978 49.6879 46.3935 47.7334 46.3935Z" stroke="url(#paint4_linear_391_1535)" stroke-width="2" stroke-miterlimit="10" stroke-linecap="round" stroke-linejoin="round"/>
<path d="M59.7832 35.3225C57.8287 35.3225 56.2441 36.907 56.2441 38.8616V70.9453H63.3224V38.8616C63.3224 36.907 61.7378 35.3225 59.7832 35.3225Z" stroke="url(#paint5_linear_391_1535)" stroke-width="2" stroke-miterlimit="10" stroke-linecap="round" stroke-linejoin="round"/>
</g>
<defs>
<linearGradient id="paint0_linear_391_1535" x1="36.0001" y1="55.1138" x2="36.0001" y2="1.05484" gradientUnits="userSpaceOnUse">
<stop stop-color="#0087A7"/>
<stop offset="1" stop-color="#0086A6"/>
</linearGradient>
<linearGradient id="paint1_linear_391_1535" x1="11.5821" y1="70.9453" x2="11.5821" y2="61.0755" gradientUnits="userSpaceOnUse">
<stop stop-color="#0087A7"/>
<stop offset="1" stop-color="#0086A6"/>
</linearGradient>
<linearGradient id="paint2_linear_391_1535" x1="23.6326" y1="70.9453" x2="23.6326" y2="57.1781" gradientUnits="userSpaceOnUse">
<stop stop-color="#0087A7"/>
<stop offset="1" stop-color="#0086A6"/>
</linearGradient>
<linearGradient id="paint3_linear_391_1535" x1="35.6827" y1="70.9453" x2="35.6827" y2="53.8628" gradientUnits="userSpaceOnUse">
<stop stop-color="#0087A7"/>
<stop offset="1" stop-color="#0086A6"/>
</linearGradient>
<linearGradient id="paint4_linear_391_1535" x1="47.7334" y1="70.9453" x2="47.7334" y2="46.3935" gradientUnits="userSpaceOnUse">
<stop stop-color="#0087A7"/>
<stop offset="1" stop-color="#0086A6"/>
</linearGradient>
<linearGradient id="paint5_linear_391_1535" x1="59.7832" y1="70.9453" x2="59.7832" y2="35.3225" gradientUnits="userSpaceOnUse">
<stop stop-color="#0087A7"/>
<stop offset="1" stop-color="#0086A6"/>
</linearGradient>
</defs>
</svg>
