<svg width="94" height="94" viewBox="0 0 94 94" fill="none" xmlns="http://www.w3.org/2000/svg">
<path d="M70.6484 39.5034C69.8377 39.5034 69.1797 38.8461 69.1797 38.0347V25.0054H25.1172V38.0347C25.1172 38.8461 24.4592 39.5034 23.6484 39.5034C22.8377 39.5034 22.1797 38.8461 22.1797 38.0347V23.5366C22.1797 22.7251 22.8377 22.0679 23.6484 22.0679H70.6484C71.4592 22.0679 72.1172 22.7251 72.1172 23.5366V38.0347C72.1172 38.8461 71.4599 39.5034 70.6484 39.5034Z" fill="url(#paint0_linear_391_2098)"/>
<path d="M12.6144 58.4446C12.2354 58.4446 11.8572 58.2992 11.5694 58.0083L0.728516 47.0368L11.5694 36.0637C12.14 35.4858 13.0697 35.4814 13.6462 36.0505C14.2234 36.6211 14.2293 37.5501 13.6594 38.1281L4.85791 47.0368L13.6587 55.9433C14.2285 56.5198 14.2234 57.4509 13.6454 58.0201C13.3598 58.3028 12.9874 58.4446 12.6144 58.4446Z" fill="url(#paint1_linear_391_2098)"/>
<path d="M28.067 48.5056H4.05078C3.24003 48.5056 2.58203 47.8476 2.58203 47.0369C2.58203 46.2254 3.24003 45.5681 4.05078 45.5681H28.067C28.8778 45.5681 29.5358 46.2254 29.5358 47.0369C29.5358 47.8476 28.8778 48.5056 28.067 48.5056Z" fill="url(#paint2_linear_391_2098)"/>
<path d="M81.4591 58.4446C81.086 58.4446 80.713 58.3029 80.4273 58.0201C79.8501 57.451 79.8442 56.5198 80.4141 55.9433L89.2148 47.0368L80.4141 38.1281C79.8442 37.5502 79.8494 36.6212 80.4273 36.0506C81.0038 35.4807 81.9335 35.4858 82.5041 36.0638L93.345 47.0368L82.5041 58.0084C82.2162 58.2992 81.8373 58.4446 81.4591 58.4446Z" fill="url(#paint3_linear_391_2098)"/>
<path d="M90.0241 48.5056H66.0078C65.1971 48.5056 64.5391 47.8476 64.5391 47.0369C64.5391 46.2254 65.1971 45.5681 66.0078 45.5681H90.0241C90.8348 45.5681 91.4928 46.2254 91.4928 47.0369C91.4928 47.8476 90.8348 48.5056 90.0241 48.5056Z" fill="url(#paint4_linear_391_2098)"/>
<path d="M70.6484 72.0054H23.6484C22.8377 72.0054 22.1797 71.3474 22.1797 70.5366V56.0393C22.1797 55.2286 22.8377 54.5706 23.6484 54.5706C24.4592 54.5706 25.1172 55.2286 25.1172 56.0393V69.0679H69.1797V56.0393C69.1797 55.2286 69.8377 54.5706 70.6484 54.5706C71.4592 54.5706 72.1172 55.2286 72.1172 56.0393V70.5366C72.1172 71.3474 71.4599 72.0054 70.6484 72.0054Z" fill="url(#paint5_linear_391_2098)"/>
<defs>
<linearGradient id="paint0_linear_391_2098" x1="47.1484" y1="22.0679" x2="47.1484" y2="39.5034" gradientUnits="userSpaceOnUse">
<stop stop-color="white"/>
<stop offset="1" stop-color="#04B2BE"/>
</linearGradient>
<linearGradient id="paint1_linear_391_2098" x1="7.40574" y1="35.627" x2="7.40574" y2="58.4446" gradientUnits="userSpaceOnUse">
<stop stop-color="white"/>
<stop offset="1" stop-color="#04B2BE"/>
</linearGradient>
<linearGradient id="paint2_linear_391_2098" x1="16.0589" y1="45.5681" x2="16.0589" y2="48.5056" gradientUnits="userSpaceOnUse">
<stop stop-color="white"/>
<stop offset="1" stop-color="#04B2BE"/>
</linearGradient>
<linearGradient id="paint3_linear_391_2098" x1="86.6676" y1="35.6267" x2="86.6676" y2="58.4446" gradientUnits="userSpaceOnUse">
<stop stop-color="white"/>
<stop offset="1" stop-color="#04B2BE"/>
</linearGradient>
<linearGradient id="paint4_linear_391_2098" x1="78.0159" y1="45.5681" x2="78.0159" y2="48.5056" gradientUnits="userSpaceOnUse">
<stop stop-color="white"/>
<stop offset="1" stop-color="#04B2BE"/>
</linearGradient>
<linearGradient id="paint5_linear_391_2098" x1="47.1484" y1="54.5706" x2="47.1484" y2="72.0054" gradientUnits="userSpaceOnUse">
<stop stop-color="white"/>
<stop offset="1" stop-color="#04B2BE"/>
</linearGradient>
</defs>
</svg>
