<svg width="72" height="72" viewBox="0 0 72 72" fill="none" xmlns="http://www.w3.org/2000/svg">
<path d="M68.4912 45.3779C68.7156 45.3785 68.9268 45.4558 69.0781 45.5898C69.2036 45.701 69.3083 45.8685 69.3379 46.1182L69.3457 46.2305V68.4922C69.3456 68.9631 68.9631 69.3455 68.4922 69.3457H44.3262C43.8551 69.3457 43.4718 68.9632 43.4717 68.4922C43.4717 68.0211 43.855 67.6387 44.3262 67.6387H67.6377V46.2314C67.6464 45.9139 67.7635 45.712 67.9062 45.5859C68.0569 45.453 68.267 45.3774 68.4912 45.3779ZM29.9131 40.8799C30.2459 40.5471 30.7883 40.5471 31.1211 40.8799C31.4534 41.2127 31.4536 41.7543 31.1211 42.0869L6.42285 66.7842L5.56934 67.6377H27.6738C28.145 67.6377 28.5273 68.0211 28.5273 68.4922C28.5272 68.9632 28.1449 69.3457 27.6738 69.3457H3.51074C3.28695 69.3444 3.09469 69.2684 2.93457 69.123L2.92188 69.1123C2.90849 69.0994 2.89515 69.0862 2.88379 69.0742L2.87695 69.0664C2.76739 68.945 2.69752 68.806 2.66895 68.6504L2.6543 68.4893V46.2178C2.6543 45.7467 3.0368 45.3634 3.50781 45.3633C3.97895 45.3633 4.3623 45.7466 4.3623 46.2178V66.4307L29.9131 40.8799ZM44.3262 2.6543H68.4893L68.6514 2.66895C68.8073 2.69761 68.9454 2.76803 69.0654 2.87695L69.082 2.89258C69.0948 2.905 69.1086 2.91932 69.1221 2.93359C69.2318 3.05504 69.3025 3.19389 69.3311 3.34961L69.3457 3.51074V29.5654C69.3456 30.0363 68.963 30.4187 68.4922 30.4189C68.0211 30.4189 67.6378 30.0365 67.6377 29.5654V5.56934L66.7842 6.42285L42.0869 31.1211C41.7542 31.4538 41.2117 31.4538 40.8789 31.1211C40.5461 30.7883 40.5461 30.2459 40.8789 29.9131L65.5771 5.21582L66.4307 4.3623H44.3262C43.855 4.3623 43.4717 3.97894 43.4717 3.50781C43.4718 3.03681 43.8551 2.6543 44.3262 2.6543ZM3.50781 2.6543H27.6611L27.7744 2.66211C28.0273 2.69171 28.1948 2.797 28.3047 2.92188C28.4373 3.07263 28.5125 3.28332 28.5117 3.50879C28.5109 3.73444 28.4338 3.94642 28.2998 4.09766C28.173 4.24063 27.9734 4.35556 27.6631 4.3623H4.3623V29.5518C4.35345 29.8696 4.23642 30.0714 4.09375 30.1973C3.9431 30.3302 3.73221 30.4051 3.50781 30.4043C3.2835 30.4034 3.0722 30.3265 2.9209 30.1924C2.79544 30.0811 2.69148 29.9133 2.66211 29.6641L2.6543 29.5527V3.50781C2.65445 3.03691 3.03689 2.65445 3.50781 2.6543Z" fill="url(#paint0_linear_391_1528)" stroke="url(#paint1_linear_391_1528)"/>
<defs>
<linearGradient id="paint0_linear_391_1528" x1="35.9999" y1="2.1543" x2="35.9999" y2="69.8458" gradientUnits="userSpaceOnUse">
<stop stop-color="#0087A7"/>
<stop offset="1" stop-color="#0086A6"/>
</linearGradient>
<linearGradient id="paint1_linear_391_1528" x1="35.9999" y1="2.1543" x2="35.9999" y2="69.8458" gradientUnits="userSpaceOnUse">
<stop stop-color="#0087A7"/>
<stop offset="1" stop-color="#0086A6"/>
</linearGradient>
</defs>
</svg>
