<svg width="472" height="371" viewBox="0 0 472 371" fill="none" xmlns="http://www.w3.org/2000/svg">
<path opacity="0.8" d="M31 192.63C13.8792 192.63 -1.31861e-05 178.751 -1.16894e-05 161.63L1.47915e-06 11C2.9759e-06 -6.12083 13.8792 -20 31 -20L172.727 -20C189.847 -20 203.727 -6.12081 203.727 11L203.726 161.005C203.726 264.817 156.291 334.226 61.4211 369.233C47.74 374.281 32.7188 367.843 25.8017 355.005L18.0104 340.545C8.93073 323.693 17.3184 302.997 34.4591 294.475C50.5004 286.501 63.2191 277.673 72.6154 267.993C82.5677 257.43 89.172 242.601 92.4282 223.509C95.3067 206.632 80.9243 192.63 63.8034 192.63L31 192.63ZM298.601 192.631C281.48 192.631 267.601 178.751 267.601 161.631L267.601 11C267.601 -6.12081 281.48 -20 298.601 -20L441 -20C458.121 -20 472 -6.12079 472 11L472 161.005C472 264.858 424.336 334.281 329.007 369.274C315.329 374.295 300.327 367.856 293.416 355.03L285.541 340.415C276.486 323.607 284.771 302.97 302.138 295.04C308.7 292.043 314.445 289.083 319.373 286.161C341.286 273.003 354.958 252.107 360.391 223.471C363.582 206.65 349.198 192.631 332.077 192.631L298.601 192.631Z" fill="#FF6D04"/>
</svg>
