<svg width="72" height="72" viewBox="0 0 72 72" fill="none" xmlns="http://www.w3.org/2000/svg">
<path d="M17.7217 5.67773H54.4141C57.4931 5.67777 59.952 8.1368 59.9521 11.2158V41.6777C59.9521 43.1321 59.3498 44.3612 58.4619 45.376L57.458 46.5234H66.7373C68.2933 46.5236 69.6445 47.8756 69.6445 49.4316C69.6445 50.9876 68.2933 52.3387 66.7373 52.3389H64.1064V60.3701H66.5986C68.1546 60.3701 69.5057 61.7214 69.5059 63.2773C69.5059 64.8334 68.1547 66.1855 66.5986 66.1855H5.25977C3.70382 66.1853 2.35254 64.8333 2.35254 63.2773C2.35272 61.7215 3.70393 60.3703 5.25977 60.3701H7.89062V52.3389H5.25977C3.70386 52.3386 2.35262 50.9876 2.35254 49.4316C2.35254 47.8757 3.70382 46.5237 5.25977 46.5234H14.8242L13.6416 45.3418C12.6782 44.3782 12.1836 43.0382 12.1836 41.6777V11.2158C12.1838 8.13678 14.6426 5.67774 17.7217 5.67773ZM5.25977 61.0625C4.04692 61.0627 3.0451 62.0645 3.04492 63.2773C3.04492 64.4903 4.04682 65.4929 5.25977 65.4932H66.7373C67.9503 65.493 68.9521 64.4904 68.9521 63.2773C68.952 62.0254 67.91 61.0625 66.5986 61.0625H5.25977ZM8.58301 60.3701H22.291V52.3389H8.58301V60.3701ZM22.9834 60.3701H28.3828V52.3389H22.9834V60.3701ZM29.0752 60.3701H42.7832V52.3389H29.0752V60.3701ZM43.6143 60.3701H49.0137V52.3389H43.6143V60.3701ZM49.7061 60.3701H63.4141V52.3389H49.7061V60.3701ZM5.39844 47.2158C4.18539 47.2159 3.18359 48.2186 3.18359 49.4316C3.18366 50.5549 3.96299 51.6463 5.25977 51.6465H66.5986C67.8117 51.6465 68.8144 50.6447 68.8145 49.4316C68.8145 48.2185 67.8117 47.2158 66.5986 47.2158H5.39844ZM17.7217 6.37012C14.9707 6.37013 12.8761 8.6333 12.876 11.2158V41.6777C12.876 44.4204 14.984 46.5023 17.6807 46.6611L17.7012 46.6621H54.1367C56.8877 46.6621 58.9832 44.3989 58.9834 41.8164V11.3545C58.9833 8.60342 56.7193 6.50879 54.1367 6.50879H42.6445V18.2773C42.6445 18.4172 42.6201 18.5098 42.5967 18.5566C42.5866 18.5767 42.5794 18.5827 42.5791 18.583C42.5787 18.5834 42.5783 18.5843 42.5771 18.585C42.5758 18.5858 42.5718 18.5874 42.5645 18.5898L42.4092 18.6416L42.3584 18.6914C42.3308 18.6898 42.2892 18.6823 42.2422 18.6621C42.2177 18.6516 42.1971 18.64 42.1816 18.6299C42.1652 18.6192 42.1604 18.6145 42.165 18.6191L42.1367 18.5898L42.1045 18.5654L39.4736 16.4883L39.0352 16.1426L38.6045 16.4971L36.251 18.4355L36.2246 18.457L36.209 18.4717C36.1997 18.4756 36.1729 18.4853 36.1201 18.4854C36.0339 18.4854 35.9301 18.4566 35.8389 18.3984L33.2432 16.3496L32.8145 16.0107L32.3848 16.3496L29.7539 18.4268L29.7227 18.4521L29.6934 18.4805C29.6874 18.4865 29.674 18.5008 29.6182 18.5059C29.562 18.5109 29.4776 18.5026 29.3652 18.4717C29.364 18.4705 29.3627 18.4691 29.3613 18.4678C29.3389 18.4454 29.3127 18.4122 29.2881 18.3711C29.2361 18.2843 29.214 18.1987 29.2139 18.1396V6.37012H17.7217ZM29.9062 17.4473L31.0137 16.6162L32.6387 15.3975C32.6978 15.366 32.7504 15.3385 32.792 15.3145C32.855 15.2781 32.8868 15.2597 32.916 15.2451C32.9365 15.2349 32.9449 15.2319 32.9463 15.2314C32.9434 15.2322 32.9435 15.2315 32.9521 15.2314C32.9792 15.2314 33.0253 15.2391 33.0781 15.2617C33.1025 15.2722 33.1232 15.2839 33.1387 15.2939C33.1551 15.3047 33.1598 15.3102 33.1553 15.3057L33.1836 15.334L33.2158 15.3594L35.8467 17.4365L36.2852 17.7822L36.7158 17.4277L39.0693 15.4893L39.0957 15.4678L39.1104 15.4521C39.0991 15.4612 39.1192 15.4395 39.2002 15.4395C39.2844 15.4395 39.3859 15.4661 39.4756 15.5215L40.96 16.7363L42.0908 17.6621V6.50879H29.9062V17.4473Z" fill="url(#paint0_linear_391_1921)" stroke="url(#paint1_linear_391_1921)" stroke-width="1.38462"/>
<path d="M28.6611 28.7998H28.9385C28.9671 28.7998 29.0779 28.8113 29.2793 29.0127L29.2861 29.0186L29.292 29.0244L32.1885 31.7832C32.3321 31.9284 32.3318 32.1806 32.1875 32.3252C32.1851 32.3272 32.1795 32.3313 32.1709 32.3369C32.1554 32.347 32.1348 32.3586 32.1104 32.3691C32.0576 32.3918 32.0115 32.3994 31.9844 32.3994C31.9573 32.3994 31.912 32.3917 31.8594 32.3691C31.8347 32.3586 31.8134 32.3471 31.7979 32.3369C31.7897 32.3316 31.7848 32.3272 31.7822 32.3252L30.5361 31.0791L29.3535 29.8975V41.2617C29.3534 41.4681 29.2947 41.5528 29.2627 41.585C29.2307 41.6169 29.1458 41.6768 28.9385 41.6768C28.7902 41.6768 28.6976 41.6222 28.6357 41.5547C28.5658 41.4784 28.5236 41.3702 28.5234 41.2617V29.8975L27.3408 31.0791L26.0947 32.3252C25.9497 32.4702 25.6958 32.4702 25.5508 32.3252C25.4061 32.1801 25.4059 31.9262 25.5508 31.7812L28.3203 29.0127L28.3994 28.9326L28.4316 28.8682C28.4406 28.8623 28.4547 28.853 28.4756 28.8438C28.5068 28.8299 28.5438 28.8176 28.5811 28.8096C28.6185 28.8015 28.6469 28.7998 28.6611 28.7998Z" fill="url(#paint2_linear_391_1921)" stroke="url(#paint3_linear_391_1921)" stroke-width="1.38462"/>
<path d="M19.3857 28.7998H19.6631C19.6917 28.7998 19.8025 28.8113 20.0039 29.0127L20.0107 29.0186L20.0166 29.0244L22.9131 31.7832C23.0567 31.9284 23.0564 32.1806 22.9121 32.3252C22.9097 32.3272 22.9041 32.3313 22.8955 32.3369C22.88 32.347 22.8594 32.3586 22.835 32.3691C22.7822 32.3918 22.7361 32.3994 22.709 32.3994C22.6819 32.3994 22.6366 32.3917 22.584 32.3691C22.5593 32.3586 22.538 32.3471 22.5225 32.3369C22.5143 32.3316 22.5094 32.3272 22.5068 32.3252L21.2607 31.0791L20.0781 29.8975V41.2617C20.078 41.4681 20.0193 41.5528 19.9873 41.585C19.9553 41.6169 19.8704 41.6768 19.6631 41.6768C19.5148 41.6768 19.4222 41.6222 19.3604 41.5547C19.2904 41.4783 19.2482 41.3702 19.248 41.2617V29.8975L18.0654 31.0791L16.8193 32.3252C16.6743 32.4702 16.4204 32.4702 16.2754 32.3252C16.1307 32.1801 16.1305 31.9262 16.2754 31.7812L19.0449 29.0127L19.124 28.9326L19.1562 28.8682C19.1652 28.8623 19.1793 28.853 19.2002 28.8438C19.2314 28.8299 19.2684 28.8176 19.3057 28.8096C19.3431 28.8015 19.3715 28.7998 19.3857 28.7998Z" fill="url(#paint4_linear_391_1921)" stroke="url(#paint5_linear_391_1921)" stroke-width="1.38462"/>
<defs>
<linearGradient id="paint0_linear_391_1921" x1="35.9986" y1="4.98535" x2="35.9986" y2="66.8777" gradientUnits="userSpaceOnUse">
<stop stop-color="#0086A6"/>
<stop offset="1" stop-color="#99BE04"/>
</linearGradient>
<linearGradient id="paint1_linear_391_1921" x1="35.9986" y1="4.98535" x2="35.9986" y2="66.8777" gradientUnits="userSpaceOnUse">
<stop stop-color="#0086A6"/>
<stop offset="1" stop-color="#04B2BE"/>
</linearGradient>
<linearGradient id="paint2_linear_391_1921" x1="28.8692" y1="28.1074" x2="28.8692" y2="42.369" gradientUnits="userSpaceOnUse">
<stop stop-color="#0086A6"/>
<stop offset="1" stop-color="#99BE04"/>
</linearGradient>
<linearGradient id="paint3_linear_391_1921" x1="28.8692" y1="28.1074" x2="28.8692" y2="42.369" gradientUnits="userSpaceOnUse">
<stop stop-color="#0086A6"/>
<stop offset="1" stop-color="#04B2BE"/>
</linearGradient>
<linearGradient id="paint4_linear_391_1921" x1="19.5938" y1="28.1074" x2="19.5938" y2="42.369" gradientUnits="userSpaceOnUse">
<stop stop-color="#0086A6"/>
<stop offset="1" stop-color="#99BE04"/>
</linearGradient>
<linearGradient id="paint5_linear_391_1921" x1="19.5938" y1="28.1074" x2="19.5938" y2="42.369" gradientUnits="userSpaceOnUse">
<stop stop-color="#0086A6"/>
<stop offset="1" stop-color="#04B2BE"/>
</linearGradient>
</defs>
</svg>
