<svg width="110" height="110" viewBox="0 0 110 110" fill="none" xmlns="http://www.w3.org/2000/svg">
<path d="M109.25 2.5C109.25 1.45 108.55 0.75 107.5 0.75C106.45 0.75 105.75 1.45 105.75 2.5V4.25H100.85C99.8 4.25 99.1 4.95 99.1 6C99.1 7.05 99.8 7.75 100.85 7.75H105.75V14.75H16.5C15.45 14.75 14.75 15.45 14.75 16.5C14.75 17.55 15.45 18.25 16.5 18.25H105.75V25.25H4.25V18.25H9.85C10.9 18.25 11.6 17.55 11.6 16.5C11.6 15.45 10.9 14.75 9.85 14.75H4.25V7.75H83C84.05 7.75 84.75 7.05 84.75 6C84.75 4.95 84.05 4.25 83 4.25H4.25V2.5C4.25 1.45 3.55 0.75 2.5 0.75C1.45 0.75 0.75 1.45 0.75 2.5V31.375C0.75 33.825 2.675 35.75 5.125 35.75H16.325L47.125 42.75L16.15 49.75C15.275 49.925 14.75 50.625 14.75 51.5C14.75 52.375 15.275 53.075 16.15 53.25L26.65 55.7C26.825 55.7 28.4 55.875 28.75 54.3C28.925 53.425 28.4 52.375 27.35 52.2L24.375 51.5L55 44.5L85.625 51.5L55 58.5L34.35 53.775C33.475 53.6 32.425 54.125 32.25 55.175C32.075 56.05 32.6 57.1 33.65 57.275L47.125 60.425L16.15 67.25C15.275 67.425 14.75 68.125 14.75 69C14.75 69.875 15.275 70.575 16.15 70.75L47.125 77.75L16.325 84.75H5.475C2.85 84.75 0.75 86.85 0.75 89.475V97.35C0.75 100.15 2.85 102.25 5.475 102.25H11.425C11.775 103.475 12.3 104.7 13 105.75H2.5C1.45 105.75 0.75 106.45 0.75 107.5C0.75 108.55 1.45 109.25 2.5 109.25H97C98.05 109.25 98.75 108.55 98.75 107.5C98.75 106.45 98.05 105.75 97 105.75C97.7 104.7 98.4 103.475 98.575 102.25H104.525C107.15 102.25 109.25 100.15 109.25 97.525V89.65C109.25 87.025 107.15 84.925 104.525 84.925H93.675L62.875 77.925L93.85 70.925C94.725 70.75 95.25 70.05 95.25 69.175C95.25 68.3 94.725 67.6 93.85 67.425L62.875 60.425L93.85 53.425C94.725 53.25 95.25 52.55 95.25 51.675C95.25 50.8 94.725 50.1 93.85 49.925L62.875 42.925L93.675 35.925H104.875C107.325 35.925 109.25 34 109.25 31.55V2.5ZM20 105.75C17.025 105.75 14.75 103.475 14.75 100.5C14.75 97.525 17.025 95.25 20 95.25C22.975 95.25 25.25 97.525 25.25 100.5C25.25 103.475 22.975 105.75 20 105.75ZM90 105.75C87.025 105.75 84.75 103.475 84.75 100.5C84.75 97.525 87.025 95.25 90 95.25C92.975 95.25 95.25 97.525 95.25 100.5C95.25 103.475 92.975 105.75 90 105.75ZM93.5 88.25H104.525C105.225 88.25 105.75 88.775 105.75 89.475V97.35C105.75 98.05 105.225 98.575 104.525 98.575H98.575C97.7 94.55 94.2 91.575 90 91.575C85.8 91.575 82.3 94.55 81.425 98.575H41.35C40.3 98.575 39.6 99.275 39.6 100.325C39.6 101.375 40.3 102.075 41.35 102.075H81.425C81.775 103.3 82.3 104.525 83 105.575H27C27.7 104.525 28.4 103.3 28.575 102.075H34C35.05 102.075 35.75 101.375 35.75 100.325C35.75 99.275 35.05 98.575 34 98.575H28.575C27.7 94.55 24.2 91.575 20 91.575C15.8 91.575 12.3 94.55 11.425 98.575H5.475C4.775 98.75 4.25 98.225 4.25 97.525V89.65C4.25 88.775 4.775 88.25 5.475 88.25H16.325H16.5H16.675H93.5ZM77.75 84.75H32.25L55 79.5L77.75 84.75ZM85.625 69L55 76L24.375 69L55 62L85.625 69ZM105.75 32.25H69C67.95 32.25 67.25 32.95 67.25 34C67.25 35.05 67.95 35.75 69 35.75H77.925L55 41L32.075 35.75H62C63.05 35.75 63.75 35.05 63.75 34C63.75 32.95 63.05 32.25 62 32.25H4.25V28.75H105.75V32.25Z" fill="url(#paint0_linear_68_714)"/>
<defs>
<linearGradient id="paint0_linear_68_714" x1="55" y1="0.75" x2="55" y2="109.25" gradientUnits="userSpaceOnUse">
<stop stop-color="#0087A7"/>
<stop offset="1" stop-color="#99BE04"/>
</linearGradient>
</defs>
</svg>
