<svg width="72" height="72" viewBox="0 0 72 72" fill="none" xmlns="http://www.w3.org/2000/svg">
<mask id="path-1-inside-1_391_1602" fill="white">
<path fill-rule="evenodd" clip-rule="evenodd" d="M22.6893 55.42L16.9018 62.2378C16.9001 62.2399 16.8984 62.2419 16.8965 62.2439C16.5132 62.6892 16.0049 62.9217 15.4236 62.9217C14.826 62.9217 14.3172 62.6815 13.9428 62.2349L2.79399 49.1009C2.28632 48.5138 2.18326 47.7303 2.5057 47.0323C2.82942 46.3258 3.48646 45.903 4.26815 45.903H8.33008V10.1382C8.33008 8.62452 9.56919 7.39078 11.0827 7.39078H19.7592C21.2729 7.39078 22.512 8.62452 22.512 10.1382V44.9751C22.9937 43.087 23.7614 41.173 24.8483 39.2632L24.849 39.2622C27.3516 34.8761 31.2106 29.9487 36.4402 24.2273C34.8914 23.5189 33.8081 21.9521 33.8081 20.1408C33.8081 17.7108 35.7681 15.7157 38.1851 15.6584C36.6014 14.0746 34.6171 12.0905 34.6181 12.0914C32.8325 10.3131 32.8308 7.39783 34.6166 5.61209C36.1241 4.10461 38.5198 3.8464 40.326 4.99713C40.327 4.99769 40.3279 4.99826 40.3288 4.99882C40.512 5.11628 40.7206 5.13859 40.9215 5.05501C41.1227 4.97129 41.2592 4.81092 41.3049 4.59788L41.3054 4.59633C41.7499 2.54108 43.5934 0.988281 45.78 0.988281C47.9217 0.988281 49.7949 2.50226 50.2538 4.59294C50.2543 4.59463 50.2545 4.59619 50.255 4.59788C50.3007 4.81092 50.4372 4.97129 50.6384 5.05501C50.8393 5.13859 51.048 5.11628 51.2306 4.99925C53.0013 3.86249 55.3986 4.06734 56.9433 5.61209L56.945 5.61379C58.7225 7.39854 58.7209 10.3124 56.9433 12.0898L53.3748 15.6584C55.7918 15.7157 57.7519 17.7108 57.7519 20.1408C57.7519 21.9534 56.6671 23.5209 55.1168 24.2286C60.3502 29.9496 64.2084 34.877 66.706 39.2631C75.7379 55.1224 62.9841 71.2855 45.7805 71.0083C34.6591 71.1877 25.4023 64.4583 22.6893 55.42ZM24.6103 45.903H26.579C27.3506 45.903 28.0116 46.3239 28.3362 47.0323C28.6584 47.7294 28.554 48.5125 28.0572 49.0961L24.4835 53.3063C26.3033 62.196 35.1258 68.9283 45.761 68.7495C45.7736 68.7493 45.7863 68.7493 45.7989 68.7495C61.2388 69.0091 72.8472 54.6109 64.7431 40.3807C62.1491 35.8254 58.0372 30.6805 52.4143 24.63H39.1404C33.5227 30.6805 29.4107 35.8256 26.8112 40.381C25.7594 42.2292 25.0362 44.0803 24.6103 45.903ZM41.3784 15.6571H50.1816L55.3462 10.4926C56.2473 9.59129 56.2461 8.11402 55.3455 7.20866C54.5625 6.4264 53.348 6.32405 52.4508 6.90005L52.4504 6.90033C51.6233 7.43073 50.6791 7.51826 49.7712 7.14061C48.8647 6.76381 48.2551 6.03647 48.0475 5.07689C47.8146 4.01666 46.8662 3.2471 45.78 3.2471C44.6726 3.2471 43.7383 4.03289 43.5134 5.07252C43.3067 6.03421 42.6965 6.7631 41.7888 7.14061C40.8809 7.51826 39.9365 7.43073 39.1123 6.90216C38.1955 6.31798 36.979 6.44419 36.2137 7.20936C35.3093 8.11374 35.3078 9.5903 36.2122 10.491L36.2137 10.4926L41.3784 15.6571ZM53.2681 17.9159H38.2918C37.0684 17.9159 36.0669 18.9173 36.0669 20.1408C36.0669 21.3685 37.0678 22.3712 38.2918 22.3712H53.2681C54.4921 22.3712 55.493 21.3685 55.493 20.1408C55.493 18.9173 54.4915 17.9159 53.2681 17.9159ZM4.95977 48.1618L15.4236 60.4888L25.8874 48.1618H21.3825C20.7587 48.1618 20.2531 47.6563 20.2531 47.0324V10.1382C20.2531 9.86786 20.0297 9.6496 19.7592 9.6496H11.0827C10.8124 9.6496 10.5889 9.86786 10.5889 10.1382V47.0324C10.5889 47.6563 10.0834 48.1618 9.45949 48.1618H4.95977ZM45.6553 54.4827C45.6748 54.4817 45.6944 54.4813 45.714 54.4813C45.7383 54.4813 45.7625 54.482 45.7863 54.4836C45.8316 54.4833 45.8771 54.4827 45.9225 54.4816C47.0562 54.4538 48.3141 54.1618 49.243 53.5222C50.0124 52.9923 50.5238 52.1931 50.3901 51.0743C50.2564 49.9793 49.6421 49.2694 48.8425 48.787C47.8754 48.2036 46.6643 47.9216 45.5481 47.7384C42.6674 47.2671 39.5311 45.8917 39.3652 42.4734V42.4728C39.2411 39.8931 40.8412 38.0077 43.0368 37.1439C43.5288 36.9503 44.0497 36.8101 44.5846 36.7265V35.1939C44.5846 34.5706 45.0907 34.0645 45.714 34.0645C46.3375 34.0645 46.8434 34.5706 46.8434 35.1939V36.712C49.015 37.0246 51.0821 38.3011 52.1028 40.7358C52.3438 41.3107 52.0726 41.9731 51.4977 42.2139C50.9229 42.4549 50.2606 42.1839 50.0196 41.609C49.2286 39.722 47.4947 38.8977 45.7962 38.8896C45.7691 38.8916 45.7417 38.8926 45.714 38.8926C45.6933 38.8926 45.6727 38.892 45.6522 38.8909C45.0316 38.9049 44.4196 39.0271 43.8638 39.2458C42.5607 39.7586 41.5479 40.8329 41.6213 42.364C41.6809 43.5897 42.4461 44.3121 43.3931 44.7746C44.1694 45.1539 45.066 45.3706 45.9129 45.5093H45.9135C48.8882 45.9975 52.2029 47.2741 52.6325 50.8023L52.6327 50.8044C53.0637 54.4001 49.9099 56.3118 46.8434 56.6773V58.1799C46.8434 58.8033 46.3375 59.3093 45.714 59.3093C45.0907 59.3093 44.5846 58.8033 44.5846 58.1799V56.6628C41.8935 56.2953 39.4934 54.6595 38.7934 51.8485C38.6428 51.2437 39.0115 50.6303 39.6165 50.4797C40.2213 50.329 40.8347 50.6979 40.9853 51.3027C41.516 53.4342 43.5704 54.45 45.6553 54.4827Z"/>
</mask>
<path fill-rule="evenodd" clip-rule="evenodd" d="M22.6893 55.42L16.9018 62.2378C16.9001 62.2399 16.8984 62.2419 16.8965 62.2439C16.5132 62.6892 16.0049 62.9217 15.4236 62.9217C14.826 62.9217 14.3172 62.6815 13.9428 62.2349L2.79399 49.1009C2.28632 48.5138 2.18326 47.7303 2.5057 47.0323C2.82942 46.3258 3.48646 45.903 4.26815 45.903H8.33008V10.1382C8.33008 8.62452 9.56919 7.39078 11.0827 7.39078H19.7592C21.2729 7.39078 22.512 8.62452 22.512 10.1382V44.9751C22.9937 43.087 23.7614 41.173 24.8483 39.2632L24.849 39.2622C27.3516 34.8761 31.2106 29.9487 36.4402 24.2273C34.8914 23.5189 33.8081 21.9521 33.8081 20.1408C33.8081 17.7108 35.7681 15.7157 38.1851 15.6584C36.6014 14.0746 34.6171 12.0905 34.6181 12.0914C32.8325 10.3131 32.8308 7.39783 34.6166 5.61209C36.1241 4.10461 38.5198 3.8464 40.326 4.99713C40.327 4.99769 40.3279 4.99826 40.3288 4.99882C40.512 5.11628 40.7206 5.13859 40.9215 5.05501C41.1227 4.97129 41.2592 4.81092 41.3049 4.59788L41.3054 4.59633C41.7499 2.54108 43.5934 0.988281 45.78 0.988281C47.9217 0.988281 49.7949 2.50226 50.2538 4.59294C50.2543 4.59463 50.2545 4.59619 50.255 4.59788C50.3007 4.81092 50.4372 4.97129 50.6384 5.05501C50.8393 5.13859 51.048 5.11628 51.2306 4.99925C53.0013 3.86249 55.3986 4.06734 56.9433 5.61209L56.945 5.61379C58.7225 7.39854 58.7209 10.3124 56.9433 12.0898L53.3748 15.6584C55.7918 15.7157 57.7519 17.7108 57.7519 20.1408C57.7519 21.9534 56.6671 23.5209 55.1168 24.2286C60.3502 29.9496 64.2084 34.877 66.706 39.2631C75.7379 55.1224 62.9841 71.2855 45.7805 71.0083C34.6591 71.1877 25.4023 64.4583 22.6893 55.42ZM24.6103 45.903H26.579C27.3506 45.903 28.0116 46.3239 28.3362 47.0323C28.6584 47.7294 28.554 48.5125 28.0572 49.0961L24.4835 53.3063C26.3033 62.196 35.1258 68.9283 45.761 68.7495C45.7736 68.7493 45.7863 68.7493 45.7989 68.7495C61.2388 69.0091 72.8472 54.6109 64.7431 40.3807C62.1491 35.8254 58.0372 30.6805 52.4143 24.63H39.1404C33.5227 30.6805 29.4107 35.8256 26.8112 40.381C25.7594 42.2292 25.0362 44.0803 24.6103 45.903ZM41.3784 15.6571H50.1816L55.3462 10.4926C56.2473 9.59129 56.2461 8.11402 55.3455 7.20866C54.5625 6.4264 53.348 6.32405 52.4508 6.90005L52.4504 6.90033C51.6233 7.43073 50.6791 7.51826 49.7712 7.14061C48.8647 6.76381 48.2551 6.03647 48.0475 5.07689C47.8146 4.01666 46.8662 3.2471 45.78 3.2471C44.6726 3.2471 43.7383 4.03289 43.5134 5.07252C43.3067 6.03421 42.6965 6.7631 41.7888 7.14061C40.8809 7.51826 39.9365 7.43073 39.1123 6.90216C38.1955 6.31798 36.979 6.44419 36.2137 7.20936C35.3093 8.11374 35.3078 9.5903 36.2122 10.491L36.2137 10.4926L41.3784 15.6571ZM53.2681 17.9159H38.2918C37.0684 17.9159 36.0669 18.9173 36.0669 20.1408C36.0669 21.3685 37.0678 22.3712 38.2918 22.3712H53.2681C54.4921 22.3712 55.493 21.3685 55.493 20.1408C55.493 18.9173 54.4915 17.9159 53.2681 17.9159ZM4.95977 48.1618L15.4236 60.4888L25.8874 48.1618H21.3825C20.7587 48.1618 20.2531 47.6563 20.2531 47.0324V10.1382C20.2531 9.86786 20.0297 9.6496 19.7592 9.6496H11.0827C10.8124 9.6496 10.5889 9.86786 10.5889 10.1382V47.0324C10.5889 47.6563 10.0834 48.1618 9.45949 48.1618H4.95977ZM45.6553 54.4827C45.6748 54.4817 45.6944 54.4813 45.714 54.4813C45.7383 54.4813 45.7625 54.482 45.7863 54.4836C45.8316 54.4833 45.8771 54.4827 45.9225 54.4816C47.0562 54.4538 48.3141 54.1618 49.243 53.5222C50.0124 52.9923 50.5238 52.1931 50.3901 51.0743C50.2564 49.9793 49.6421 49.2694 48.8425 48.787C47.8754 48.2036 46.6643 47.9216 45.5481 47.7384C42.6674 47.2671 39.5311 45.8917 39.3652 42.4734V42.4728C39.2411 39.8931 40.8412 38.0077 43.0368 37.1439C43.5288 36.9503 44.0497 36.8101 44.5846 36.7265V35.1939C44.5846 34.5706 45.0907 34.0645 45.714 34.0645C46.3375 34.0645 46.8434 34.5706 46.8434 35.1939V36.712C49.015 37.0246 51.0821 38.3011 52.1028 40.7358C52.3438 41.3107 52.0726 41.9731 51.4977 42.2139C50.9229 42.4549 50.2606 42.1839 50.0196 41.609C49.2286 39.722 47.4947 38.8977 45.7962 38.8896C45.7691 38.8916 45.7417 38.8926 45.714 38.8926C45.6933 38.8926 45.6727 38.892 45.6522 38.8909C45.0316 38.9049 44.4196 39.0271 43.8638 39.2458C42.5607 39.7586 41.5479 40.8329 41.6213 42.364C41.6809 43.5897 42.4461 44.3121 43.3931 44.7746C44.1694 45.1539 45.066 45.3706 45.9129 45.5093H45.9135C48.8882 45.9975 52.2029 47.2741 52.6325 50.8023L52.6327 50.8044C53.0637 54.4001 49.9099 56.3118 46.8434 56.6773V58.1799C46.8434 58.8033 46.3375 59.3093 45.714 59.3093C45.0907 59.3093 44.5846 58.8033 44.5846 58.1799V56.6628C41.8935 56.2953 39.4934 54.6595 38.7934 51.8485C38.6428 51.2437 39.0115 50.6303 39.6165 50.4797C40.2213 50.329 40.8347 50.6979 40.9853 51.3027C41.516 53.4342 43.5704 54.45 45.6553 54.4827Z" fill="url(#paint0_linear_391_1602)" stroke="url(#paint1_linear_391_1602)" stroke-width="2" mask="url(#path-1-inside-1_391_1602)"/>
<defs>
<linearGradient id="paint0_linear_391_1602" x1="36.0065" y1="0.988281" x2="36.0065" y2="71.0118" gradientUnits="userSpaceOnUse">
<stop stop-color="#0087A7"/>
<stop offset="1" stop-color="#0086A6"/>
</linearGradient>
<linearGradient id="paint1_linear_391_1602" x1="36.0065" y1="0.988281" x2="36.0065" y2="71.0118" gradientUnits="userSpaceOnUse">
<stop stop-color="#0087A7"/>
<stop offset="1" stop-color="#0086A6"/>
</linearGradient>
</defs>
</svg>
