<svg width="72" height="72" viewBox="0 0 72 72" fill="none" xmlns="http://www.w3.org/2000/svg">
<g clip-path="url(#clip0_391_1930)">
<path d="M57.9375 23.5371V34.0312H10.125V1.40625H57.9375V10.8281" stroke="url(#paint0_linear_391_1930)" stroke-width="2" stroke-miterlimit="10" stroke-linecap="round" stroke-linejoin="round"/>
<circle cx="57.9375" cy="17.1562" r="1.40625" fill="black" stroke="url(#paint1_linear_391_1930)" stroke-width="2" stroke-miterlimit="10" stroke-linecap="round" stroke-linejoin="round"/>
<path d="M52.3125 17.1562H37.5469V28.4062H52.3125V17.1562Z" stroke="url(#paint2_linear_391_1930)" stroke-width="2" stroke-miterlimit="10" stroke-linecap="round" stroke-linejoin="round"/>
<path d="M40.3594 1.40625H27.7031V7.03125H40.3594V1.40625Z" stroke="url(#paint3_linear_391_1930)" stroke-width="2" stroke-miterlimit="10" stroke-linecap="round" stroke-linejoin="round"/>
<path d="M18.8438 70.5938C25.057 70.5938 30.0938 65.557 30.0938 59.3438C30.0938 53.1305 25.057 48.0938 18.8438 48.0938C12.6305 48.0938 7.59375 53.1305 7.59375 59.3438C7.59375 65.557 12.6305 70.5938 18.8438 70.5938Z" stroke="url(#paint4_linear_391_1930)" stroke-width="2" stroke-miterlimit="10" stroke-linecap="round" stroke-linejoin="round"/>
<path d="M53.1562 70.5938C59.3695 70.5938 64.4062 65.557 64.4062 59.3438C64.4062 53.1305 59.3695 48.0938 53.1562 48.0938C46.943 48.0938 41.9062 53.1305 41.9062 59.3438C41.9062 65.557 46.943 70.5938 53.1562 70.5938Z" stroke="url(#paint5_linear_391_1930)" stroke-width="2" stroke-miterlimit="10" stroke-linecap="round" stroke-linejoin="round"/>
<path d="M18.8438 62.1562C20.3971 62.1562 21.6562 60.8971 21.6562 59.3438C21.6562 57.7904 20.3971 56.5312 18.8438 56.5312C17.2904 56.5312 16.0312 57.7904 16.0312 59.3438C16.0312 60.8971 17.2904 62.1562 18.8438 62.1562Z" stroke="url(#paint6_linear_391_1930)" stroke-width="2" stroke-miterlimit="10" stroke-linecap="round" stroke-linejoin="round"/>
<path d="M53.1562 62.1562C54.7096 62.1562 55.9688 60.8971 55.9688 59.3438C55.9688 57.7904 54.7096 56.5312 53.1562 56.5312C51.6029 56.5312 50.3438 57.7904 50.3438 59.3438C50.3438 60.8971 51.6029 62.1562 53.1562 62.1562Z" stroke="url(#paint7_linear_391_1930)" stroke-width="2" stroke-miterlimit="10" stroke-linecap="round" stroke-linejoin="round"/>
<path d="M64.9688 34.0312H7.03125L1.40625 40.3594V59.3438H7.59375C7.59375 53.1309 12.6309 48.0938 18.8438 48.0938C25.0566 48.0938 30.0938 53.1309 30.0938 59.3438H41.9062C41.9062 53.1309 46.9434 48.0938 53.1562 48.0938C59.3691 48.0938 64.4062 53.1309 64.4062 59.3438H70.5938V40.3594L64.9688 34.0312Z" stroke="url(#paint8_linear_391_1930)" stroke-width="2" stroke-miterlimit="10" stroke-linecap="round" stroke-linejoin="round"/>
<path d="M46.6875 22.7812H43.1719" stroke="url(#paint9_linear_391_1930)" stroke-width="2" stroke-miterlimit="10" stroke-linecap="round" stroke-linejoin="round"/>
<path d="M64.9688 34.0312H57.9375V27H61.4531C63.3947 27 64.9688 28.574 64.9688 30.5156V34.0312Z" stroke="url(#paint10_linear_391_1930)" stroke-width="2" stroke-miterlimit="10" stroke-linecap="round" stroke-linejoin="round"/>
<path d="M15.75 19.9688L18.5625 17.1562L21.375 19.9688" stroke="url(#paint11_linear_391_1930)" stroke-width="2" stroke-miterlimit="10" stroke-linecap="round" stroke-linejoin="round"/>
<path d="M18.5625 17.1562V22.7812" stroke="url(#paint12_linear_391_1930)" stroke-width="2" stroke-miterlimit="10" stroke-linecap="round" stroke-linejoin="round"/>
<path d="M15.75 28.4062H21.375" stroke="url(#paint13_linear_391_1930)" stroke-width="2" stroke-miterlimit="10" stroke-linecap="round" stroke-linejoin="round"/>
<path d="M1.40625 40.3594H57.6562" stroke="url(#paint14_linear_391_1930)" stroke-width="2" stroke-miterlimit="10" stroke-linecap="round" stroke-linejoin="round"/>
</g>
<defs>
<linearGradient id="paint0_linear_391_1930" x1="34.0312" y1="1.40625" x2="34.0312" y2="34.0312" gradientUnits="userSpaceOnUse">
<stop stop-color="#0086A6"/>
<stop offset="1" stop-color="#04B2BE"/>
</linearGradient>
<linearGradient id="paint1_linear_391_1930" x1="57.9375" y1="15.75" x2="57.9375" y2="18.5625" gradientUnits="userSpaceOnUse">
<stop stop-color="#0086A6"/>
<stop offset="1" stop-color="#04B2BE"/>
</linearGradient>
<linearGradient id="paint2_linear_391_1930" x1="44.9297" y1="17.1562" x2="44.9297" y2="28.4062" gradientUnits="userSpaceOnUse">
<stop stop-color="#0086A6"/>
<stop offset="1" stop-color="#04B2BE"/>
</linearGradient>
<linearGradient id="paint3_linear_391_1930" x1="34.0312" y1="1.40625" x2="34.0312" y2="7.03125" gradientUnits="userSpaceOnUse">
<stop stop-color="#0086A6"/>
<stop offset="1" stop-color="#04B2BE"/>
</linearGradient>
<linearGradient id="paint4_linear_391_1930" x1="18.8438" y1="48.0938" x2="18.8438" y2="70.5938" gradientUnits="userSpaceOnUse">
<stop stop-color="#0086A6"/>
<stop offset="1" stop-color="#04B2BE"/>
</linearGradient>
<linearGradient id="paint5_linear_391_1930" x1="53.1562" y1="48.0938" x2="53.1562" y2="70.5938" gradientUnits="userSpaceOnUse">
<stop stop-color="#0086A6"/>
<stop offset="1" stop-color="#04B2BE"/>
</linearGradient>
<linearGradient id="paint6_linear_391_1930" x1="18.8438" y1="56.5312" x2="18.8438" y2="62.1562" gradientUnits="userSpaceOnUse">
<stop stop-color="#0086A6"/>
<stop offset="1" stop-color="#04B2BE"/>
</linearGradient>
<linearGradient id="paint7_linear_391_1930" x1="53.1562" y1="56.5312" x2="53.1562" y2="62.1562" gradientUnits="userSpaceOnUse">
<stop stop-color="#0086A6"/>
<stop offset="1" stop-color="#04B2BE"/>
</linearGradient>
<linearGradient id="paint8_linear_391_1930" x1="36" y1="34.0312" x2="36" y2="59.3438" gradientUnits="userSpaceOnUse">
<stop stop-color="#0086A6"/>
<stop offset="1" stop-color="#04B2BE"/>
</linearGradient>
<linearGradient id="paint9_linear_391_1930" x1="44.9297" y1="22.7812" x2="44.9297" y2="23.7812" gradientUnits="userSpaceOnUse">
<stop stop-color="#0086A6"/>
<stop offset="1" stop-color="#04B2BE"/>
</linearGradient>
<linearGradient id="paint10_linear_391_1930" x1="61.4531" y1="27" x2="61.4531" y2="34.0312" gradientUnits="userSpaceOnUse">
<stop stop-color="#0086A6"/>
<stop offset="1" stop-color="#04B2BE"/>
</linearGradient>
<linearGradient id="paint11_linear_391_1930" x1="18.5625" y1="17.1562" x2="18.5625" y2="19.9688" gradientUnits="userSpaceOnUse">
<stop stop-color="#0086A6"/>
<stop offset="1" stop-color="#04B2BE"/>
</linearGradient>
<linearGradient id="paint12_linear_391_1930" x1="19.0625" y1="17.1562" x2="19.0625" y2="22.7812" gradientUnits="userSpaceOnUse">
<stop stop-color="#0086A6"/>
<stop offset="1" stop-color="#04B2BE"/>
</linearGradient>
<linearGradient id="paint13_linear_391_1930" x1="18.5625" y1="28.4062" x2="18.5625" y2="29.4062" gradientUnits="userSpaceOnUse">
<stop stop-color="#0086A6"/>
<stop offset="1" stop-color="#04B2BE"/>
</linearGradient>
<linearGradient id="paint14_linear_391_1930" x1="29.5312" y1="40.3594" x2="29.5312" y2="41.3594" gradientUnits="userSpaceOnUse">
<stop stop-color="#0086A6"/>
<stop offset="1" stop-color="#04B2BE"/>
</linearGradient>
<clipPath id="clip0_391_1930">
<rect width="72" height="72" fill="white"/>
</clipPath>
</defs>
</svg>
