<svg width="72" height="72" viewBox="0 0 72 72" fill="none" xmlns="http://www.w3.org/2000/svg">
<g clip-path="url(#clip0_391_1557)">
<path d="M57.1691 50.0808H50.0811V57.1689" stroke="url(#paint0_linear_391_1557)" stroke-width="3" stroke-miterlimit="10" stroke-linecap="round" stroke-linejoin="round"/>
<path d="M50.0811 50.0808L70.9454 70.9452" stroke="url(#paint1_linear_391_1557)" stroke-width="3" stroke-miterlimit="10" stroke-linecap="round" stroke-linejoin="round"/>
<path d="M14.8311 50.0808H21.9191V57.1689" stroke="url(#paint2_linear_391_1557)" stroke-width="3" stroke-miterlimit="10" stroke-linecap="round" stroke-linejoin="round"/>
<path d="M8.60189 63.3979L1.05469 70.9452" stroke="url(#paint3_linear_391_1557)" stroke-width="3" stroke-miterlimit="10" stroke-linecap="round" stroke-linejoin="round"/>
<path d="M21.9194 50.0808L12.0889 59.9113" stroke="url(#paint4_linear_391_1557)" stroke-width="3" stroke-miterlimit="10" stroke-linecap="round" stroke-linejoin="round"/>
<path d="M57.1691 21.9191H50.0811V14.8311" stroke="url(#paint5_linear_391_1557)" stroke-width="3" stroke-miterlimit="10" stroke-linecap="round" stroke-linejoin="round"/>
<path d="M50.0811 21.9191L70.9454 1.05469" stroke="url(#paint6_linear_391_1557)" stroke-width="3" stroke-miterlimit="10" stroke-linecap="round" stroke-linejoin="round"/>
<path d="M14.8311 21.9191H21.9191V14.8311" stroke="url(#paint7_linear_391_1557)" stroke-width="3" stroke-miterlimit="10" stroke-linecap="round" stroke-linejoin="round"/>
<path d="M21.9191 21.9191L1.05469 1.05469" stroke="url(#paint8_linear_391_1557)" stroke-width="3" stroke-miterlimit="10" stroke-linecap="round" stroke-linejoin="round"/>
<path d="M46.1811 38.1338V45.2474C46.1811 45.7632 45.7629 46.1814 45.2471 46.1814H26.7524C26.2366 46.1814 25.8184 45.7632 25.8184 45.2474V26.7526C25.8184 26.2368 26.2366 25.8186 26.7524 25.8186H45.2471C45.7629 25.8186 46.1811 26.2368 46.1811 26.7526V33.212" stroke="url(#paint9_linear_391_1557)" stroke-width="3" stroke-miterlimit="10" stroke-linecap="round" stroke-linejoin="round"/>
</g>
<defs>
<linearGradient id="paint0_linear_391_1557" x1="53.6251" y1="50.0808" x2="53.6251" y2="57.1689" gradientUnits="userSpaceOnUse">
<stop stop-color="#0086A6"/>
<stop offset="1" stop-color="#04B2BE"/>
</linearGradient>
<linearGradient id="paint1_linear_391_1557" x1="60.5132" y1="50.0808" x2="60.5132" y2="70.9452" gradientUnits="userSpaceOnUse">
<stop stop-color="#0086A6"/>
<stop offset="1" stop-color="#04B2BE"/>
</linearGradient>
<linearGradient id="paint2_linear_391_1557" x1="18.3751" y1="50.0808" x2="18.3751" y2="57.1689" gradientUnits="userSpaceOnUse">
<stop stop-color="#0086A6"/>
<stop offset="1" stop-color="#04B2BE"/>
</linearGradient>
<linearGradient id="paint3_linear_391_1557" x1="4.82829" y1="63.3979" x2="4.82829" y2="70.9452" gradientUnits="userSpaceOnUse">
<stop stop-color="#0086A6"/>
<stop offset="1" stop-color="#04B2BE"/>
</linearGradient>
<linearGradient id="paint4_linear_391_1557" x1="17.0041" y1="50.0808" x2="17.0041" y2="59.9113" gradientUnits="userSpaceOnUse">
<stop stop-color="#0086A6"/>
<stop offset="1" stop-color="#04B2BE"/>
</linearGradient>
<linearGradient id="paint5_linear_391_1557" x1="53.6251" y1="14.8311" x2="53.6251" y2="21.9191" gradientUnits="userSpaceOnUse">
<stop stop-color="#0086A6"/>
<stop offset="1" stop-color="#04B2BE"/>
</linearGradient>
<linearGradient id="paint6_linear_391_1557" x1="60.5132" y1="1.05469" x2="60.5132" y2="21.9191" gradientUnits="userSpaceOnUse">
<stop stop-color="#0086A6"/>
<stop offset="1" stop-color="#04B2BE"/>
</linearGradient>
<linearGradient id="paint7_linear_391_1557" x1="18.3751" y1="14.8311" x2="18.3751" y2="21.9191" gradientUnits="userSpaceOnUse">
<stop stop-color="#0086A6"/>
<stop offset="1" stop-color="#04B2BE"/>
</linearGradient>
<linearGradient id="paint8_linear_391_1557" x1="11.4869" y1="1.05469" x2="11.4869" y2="21.9191" gradientUnits="userSpaceOnUse">
<stop stop-color="#0086A6"/>
<stop offset="1" stop-color="#04B2BE"/>
</linearGradient>
<linearGradient id="paint9_linear_391_1557" x1="35.9998" y1="25.8186" x2="35.9998" y2="46.1814" gradientUnits="userSpaceOnUse">
<stop stop-color="#0086A6"/>
<stop offset="1" stop-color="#04B2BE"/>
</linearGradient>
<clipPath id="clip0_391_1557">
<rect width="72" height="72" fill="white"/>
</clipPath>
</defs>
</svg>
