<svg width="88" height="88" viewBox="0 0 88 88" fill="none" xmlns="http://www.w3.org/2000/svg">
<g clip-path="url(#clip0_391_1978)">
<path d="M51.0172 66.1382C51.0172 65.3792 51.6325 64.7632 52.3922 64.7632L64.5898 64.7632L64.5898 23.5132L52.3922 23.5132C51.6325 23.5132 51.0172 22.8972 51.0172 22.1382C51.0172 21.3792 51.6325 20.7632 52.3922 20.7632L65.9648 20.7632C66.7245 20.7632 67.3398 21.3792 67.3398 22.1382L67.3398 66.1382C67.3398 66.8972 66.7245 67.5132 65.9648 67.5132L52.3922 67.5132C51.6325 67.5132 51.0172 66.8979 51.0172 66.1382Z" fill="url(#paint0_linear_391_1978)"/>
<path d="M33.2853 11.8086C33.2853 11.4538 33.4214 11.0998 33.6937 10.8303L43.9649 0.681396L54.2376 10.8303C54.7786 11.3645 54.7828 12.2348 54.2499 12.7745C53.7158 13.3149 52.8461 13.3204 52.305 12.7869L43.9649 4.54721L35.6269 12.7862C35.0873 13.3197 34.2155 13.3149 33.6827 12.7738C33.418 12.5064 33.2853 12.1578 33.2853 11.8086Z" fill="url(#paint1_linear_391_1978)"/>
<path d="M42.5898 26.2743L42.5898 3.79102C42.5898 3.03202 43.2058 2.41602 43.9648 2.41602C44.7245 2.41602 45.3398 3.03202 45.3398 3.79102L45.3398 26.2743C45.3398 27.0333 44.7245 27.6493 43.9648 27.6493C43.2058 27.6493 42.5898 27.0333 42.5898 26.2743Z" fill="url(#paint2_linear_391_1978)"/>
<path d="M33.2851 76.2609C33.2851 75.9116 33.4178 75.5624 33.6824 75.2949C34.2153 74.7545 35.087 74.749 35.6267 75.2825L43.9647 83.5215L52.3047 75.2825C52.8458 74.749 53.7155 74.7539 54.2497 75.2949C54.7832 75.8346 54.7784 76.705 54.2373 77.2392L43.9647 87.388L33.6934 77.2392C33.4212 76.9697 33.2851 76.6149 33.2851 76.2609Z" fill="url(#paint3_linear_391_1978)"/>
<path d="M42.5898 84.2785L42.5898 61.7952C42.5898 61.0362 43.2058 60.4202 43.9648 60.4202C44.7245 60.4202 45.3398 61.0362 45.3398 61.7952L45.3398 84.2785C45.3398 85.0375 44.7245 85.6535 43.9648 85.6535C43.2058 85.6535 42.5898 85.0375 42.5898 84.2785Z" fill="url(#paint4_linear_391_1978)"/>
<path d="M20.5902 66.1382L20.5902 22.1382C20.5902 21.3792 21.2062 20.7632 21.9652 20.7632L35.5371 20.7632C36.2961 20.7632 36.9121 21.3792 36.9121 22.1382C36.9121 22.8972 36.2961 23.5132 35.5371 23.5132L23.3402 23.5132L23.3402 64.7632L35.5371 64.7632C36.2961 64.7632 36.9121 65.3792 36.9121 66.1382C36.9121 66.8972 36.2961 67.5132 35.5371 67.5132L21.9652 67.5132C21.2062 67.5132 20.5902 66.8979 20.5902 66.1382Z" fill="url(#paint5_linear_391_1978)"/>
</g>
<defs>
<linearGradient id="paint0_linear_391_1978" x1="67.3398" y1="44.1382" x2="51.0172" y2="44.1382" gradientUnits="userSpaceOnUse">
<stop stop-color="#0086A6"/>
<stop offset="1" stop-color="#04B2BE"/>
</linearGradient>
<linearGradient id="paint1_linear_391_1978" x1="54.6465" y1="6.93242" x2="33.2853" y2="6.93242" gradientUnits="userSpaceOnUse">
<stop stop-color="#0086A6"/>
<stop offset="1" stop-color="#04B2BE"/>
</linearGradient>
<linearGradient id="paint2_linear_391_1978" x1="45.3398" y1="15.0327" x2="42.5898" y2="15.0327" gradientUnits="userSpaceOnUse">
<stop stop-color="#0086A6"/>
<stop offset="1" stop-color="#04B2BE"/>
</linearGradient>
<linearGradient id="paint3_linear_391_1978" x1="54.6465" y1="81.1369" x2="33.2851" y2="81.1369" gradientUnits="userSpaceOnUse">
<stop stop-color="#0086A6"/>
<stop offset="1" stop-color="#04B2BE"/>
</linearGradient>
<linearGradient id="paint4_linear_391_1978" x1="45.3398" y1="73.0368" x2="42.5898" y2="73.0368" gradientUnits="userSpaceOnUse">
<stop stop-color="#0086A6"/>
<stop offset="1" stop-color="#04B2BE"/>
</linearGradient>
<linearGradient id="paint5_linear_391_1978" x1="36.9121" y1="44.1382" x2="20.5902" y2="44.1382" gradientUnits="userSpaceOnUse">
<stop stop-color="#0086A6"/>
<stop offset="1" stop-color="#04B2BE"/>
</linearGradient>
<clipPath id="clip0_391_1978">
<rect width="88" height="88" fill="white" transform="translate(88) rotate(90)"/>
</clipPath>
</defs>
</svg>
