<svg width="72" height="72" viewBox="0 0 72 72" fill="none" xmlns="http://www.w3.org/2000/svg">
<path d="M69.75 68.625H67.5C66.825 68.625 66.375 69.075 66.375 69.75C66.375 70.425 66.825 70.875 67.5 70.875H69.75C70.425 70.875 70.875 70.425 70.875 69.75C70.875 69.075 70.425 68.625 69.75 68.625Z" fill="#0086A6"/>
<path d="M58.5 5.625H60.75C61.425 5.625 61.875 5.175 61.875 4.5C61.875 3.825 61.425 3.375 60.75 3.375H58.5C57.825 3.375 57.375 3.825 57.375 4.5C57.375 5.175 57.825 5.625 58.5 5.625Z" fill="#0086A6"/>
<path d="M47.25 61.875H51.75C52.425 61.875 52.875 61.425 52.875 60.75C52.875 60.075 52.425 59.625 51.75 59.625H47.25C46.575 59.625 46.125 60.075 46.125 60.75C46.125 61.425 46.575 61.875 47.25 61.875Z" fill="#0086A6"/>
<path d="M22.5 61.875H42.75C43.425 61.875 43.875 61.425 43.875 60.75C43.875 60.075 43.425 59.625 42.75 59.625H22.5C21.825 59.625 21.375 60.075 21.375 60.75C21.375 61.425 21.825 61.875 22.5 61.875Z" fill="#0086A6"/>
<path d="M70.875 2.25C70.875 1.575 70.425 1.125 69.75 1.125C69.075 1.125 68.625 1.575 68.625 2.25V3.375H65.475C64.8 3.375 64.35 3.825 64.35 4.5C64.35 5.175 64.8 5.625 65.475 5.625H68.625V10.125H11.25C10.575 10.125 10.125 10.575 10.125 11.25C10.125 11.925 10.575 12.375 11.25 12.375H68.625V16.875H3.375V12.375H6.975C7.65 12.375 8.1 11.925 8.1 11.25C8.1 10.575 7.65 10.125 6.975 10.125H3.375V5.625H54C54.675 5.625 55.125 5.175 55.125 4.5C55.125 3.825 54.675 3.375 54 3.375H3.375V2.25C3.375 1.575 2.925 1.125 2.25 1.125C1.575 1.125 1.125 1.575 1.125 2.25V20.8125C1.125 22.3875 2.3625 23.625 3.9375 23.625H11.1375L30.9375 28.125L11.025 32.625C10.4625 32.7375 10.125 33.1875 10.125 33.75C10.125 34.3125 10.4625 34.7625 11.025 34.875L17.775 36.45C17.8875 36.45 18.9 36.5625 19.125 35.55C19.2375 34.9875 18.9 34.3125 18.225 34.2L16.3125 33.75L36 29.25L55.6875 33.75L36 38.25L22.725 35.2125C22.1625 35.1 21.4875 35.4375 21.375 36.1125C21.2625 36.675 21.6 37.35 22.275 37.4625L30.9375 39.4875L11.025 43.875C10.4625 43.9875 10.125 44.4375 10.125 45C10.125 45.5625 10.4625 46.0125 11.025 46.125L30.9375 50.625L11.1375 55.125H4.1625C2.475 55.125 1.125 56.475 1.125 58.1625V63.225C1.125 65.025 2.475 66.375 4.1625 66.375H7.9875C8.2125 67.1625 8.55 67.95 9 68.625H2.25C1.575 68.625 1.125 69.075 1.125 69.75C1.125 70.425 1.575 70.875 2.25 70.875H63C63.675 70.875 64.125 70.425 64.125 69.75C64.125 69.075 63.675 68.625 63 68.625C63.45 67.95 63.9 67.1625 64.0125 66.375H67.8375C69.525 66.375 70.875 65.025 70.875 63.3375V58.275C70.875 56.5875 69.525 55.2375 67.8375 55.2375H60.8625L41.0625 50.7375L60.975 46.2375C61.5375 46.125 61.875 45.675 61.875 45.1125C61.875 44.55 61.5375 44.1 60.975 43.9875L41.0625 39.4875L60.975 34.9875C61.5375 34.875 61.875 34.425 61.875 33.8625C61.875 33.3 61.5375 32.85 60.975 32.7375L41.0625 28.2375L60.8625 23.7375H68.0625C69.6375 23.7375 70.875 22.5 70.875 20.925V2.25ZM13.5 68.625C11.5875 68.625 10.125 67.1625 10.125 65.25C10.125 63.3375 11.5875 61.875 13.5 61.875C15.4125 61.875 16.875 63.3375 16.875 65.25C16.875 67.1625 15.4125 68.625 13.5 68.625ZM58.5 68.625C56.5875 68.625 55.125 67.1625 55.125 65.25C55.125 63.3375 56.5875 61.875 58.5 61.875C60.4125 61.875 61.875 63.3375 61.875 65.25C61.875 67.1625 60.4125 68.625 58.5 68.625ZM60.75 57.375H67.8375C68.2875 57.375 68.625 57.7125 68.625 58.1625V63.225C68.625 63.675 68.2875 64.0125 67.8375 64.0125H64.0125C63.45 61.425 61.2 59.5125 58.5 59.5125C55.8 59.5125 53.55 61.425 52.9875 64.0125H27.225C26.55 64.0125 26.1 64.4625 26.1 65.1375C26.1 65.8125 26.55 66.2625 27.225 66.2625H52.9875C53.2125 67.05 53.55 67.8375 54 68.5125H18C18.45 67.8375 18.9 67.05 19.0125 66.2625H22.5C23.175 66.2625 23.625 65.8125 23.625 65.1375C23.625 64.4625 23.175 64.0125 22.5 64.0125H19.0125C18.45 61.425 16.2 59.5125 13.5 59.5125C10.8 59.5125 8.55 61.425 7.9875 64.0125H4.1625C3.7125 64.125 3.375 63.7875 3.375 63.3375V58.275C3.375 57.7125 3.7125 57.375 4.1625 57.375H11.1375H11.25H11.3625H60.75ZM50.625 55.125H21.375L36 51.75L50.625 55.125ZM55.6875 45L36 49.5L16.3125 45L36 40.5L55.6875 45ZM68.625 21.375H45C44.325 21.375 43.875 21.825 43.875 22.5C43.875 23.175 44.325 23.625 45 23.625H50.7375L36 27L21.2625 23.625H40.5C41.175 23.625 41.625 23.175 41.625 22.5C41.625 21.825 41.175 21.375 40.5 21.375H3.375V19.125H68.625V21.375Z" fill="#0086A6"/>
<path d="M58.5 66.375C59.1213 66.375 59.625 65.8713 59.625 65.25C59.625 64.6287 59.1213 64.125 58.5 64.125C57.8787 64.125 57.375 64.6287 57.375 65.25C57.375 65.8713 57.8787 66.375 58.5 66.375Z" fill="#0086A6"/>
<path d="M13.5 66.375C14.1213 66.375 14.625 65.8713 14.625 65.25C14.625 64.6287 14.1213 64.125 13.5 64.125C12.8787 64.125 12.375 64.6287 12.375 65.25C12.375 65.8713 12.8787 66.375 13.5 66.375Z" fill="#0086A6"/>
</svg>
